<svg version="1.2" xmlns="http://www.w3.org/2000/svg" viewBox="0 0 1000 222" width="1000" height="222">
	<title>agora-logo-brand</title>
	<style>
		.s0 { fill: #ffffff } 
	</style>
	<path class="s0" d="m107.9 0v88.1c0 3.7-4.4 5.5-7 2.9l-41.5-40.5 17.4-45.2c1.2-3.2 4.3-5.3 7.7-5.3h23.4z"/>
	<path class="s0" d="m107.9 120v49.5c0 3.3-3.9 4.9-6.3 2.7l-64.3-60.6 18.9-49 46.9 45.9c3.1 3 4.8 7.1 4.8 11.5z"/>
	<path class="s0" d="m107.9 199.8v22.2h-99.7c-5.7 0-9.7-5.8-7.6-11.1l33.4-87 69.3 65.4c3 2.7 4.6 6.5 4.6 10.5z"/>
	<path class="s0" d="m118.6 0v88.1c0 3.7 4.4 5.5 7 2.9l41.4-40.5-17.3-45.2c-1.3-3.2-4.3-5.3-7.7-5.3h-23.4z"/>
	<path class="s0" d="m118.6 120v49.5c0 3.3 3.9 4.9 6.3 2.7l64.3-60.6-18.9-49-46.9 45.9c-3.1 3-4.9 7.1-4.9 11.5z"/>
	<path class="s0" d="m118.6 199.8v22.2h99.6c5.8 0 9.8-5.8 7.7-11.1l-33.5-87-69.3 65.4c-2.9 2.7-4.5 6.5-4.5 10.5z"/>
	<path class="s0" d="m1000.2 180.4h-25.1l-13.2-33.9h-61.9l-13.1 33.9h-24.9l55.1-138.8h28.9zm-69.3-113.9l-22.7 58.6h45.4z"/>
	<path class="s0" d="m764.3 180.4h-23.9v-138.8h62.7c24.7 0 43.2 15.9 43.2 37.7 0 17.6-8.7 29.9-23.3 35.1 15.4 0 21.3 6.5 21.3 19.6v46.4h-23.8v-40.5c0-10.3-3-13.2-13.4-13.2h-42.8zm0-117.6v42.8h32.9c16.5 0 25.2-8.9 25.2-22.2 0-13.6-8.7-20.6-25.2-20.6z"/>
	<path class="s0" d="m645.5 182.4c-38.8 0-66.7-26.8-66.7-71.4 0-44.6 27.9-71.4 66.7-71.4 39.1 0 66.9 26.8 66.9 71.4 0 44.6-27.8 71.4-66.9 71.4zm-1-21.3h2c25.3 0 42-18.6 42-50.1 0-31.5-16.7-50.1-42-50.1h-2c-25.2 0-41.8 18.6-41.8 50.1 0 31.5 16.6 50.1 41.8 50.1z"/>
	<path class="s0" d="m495 182.4c-40.4 0-66.3-30.4-66.3-71.4 0-41 26.5-71.4 68.3-71.4 35.8 0 56.5 20.9 58.5 48.8h-23.9c-2-16.6-13.3-27.5-33.6-27.5h-2c-26.7 0-43.4 19.2-43.4 50.1 0 30.9 16.7 50.1 43.4 50.1h2c20.5 0 35-11.8 37.6-28.7l0.2-2.4h-38.8v-21.2h42.6c10.9 0 16.9 6 16.9 16.9v54.7h-20.9v-14.5c-6.4 7.5-19.5 16.5-40.6 16.5z"/>
	<path class="s0" d="m420.2 180.4h-25l-13.2-33.9h-61.9l-13.1 33.9h-24.9l55.1-138.8h28.9zm-69.3-113.9l-22.7 58.6h45.4z"/>
</svg>