<?xml version="1.0" standalone="no"?>
<!DOCTYPE svg PUBLIC "-//W3C//DTD SVG 20010904//EN"
 "http://www.w3.org/TR/2001/REC-SVG-20010904/DTD/svg10.dtd">
<svg version="1.0" xmlns="http://www.w3.org/2000/svg"
 width="820.000000pt" height="219.000000pt" viewBox="0 0 820.000000 219.000000"
 preserveAspectRatio="xMidYMid meet">

<g transform="translate(0.000000,219.000000) scale(0.100000,-0.100000)"
fill="#ffffff" stroke="none">
<path d="M3992 948 l3 -832 80 -23 c185 -51 431 -57 570 -13 210 66 339 198
391 400 23 86 23 245 1 328 -53 198 -192 336 -387 383 -79 19 -242 17 -315 -5
-33 -10 -70 -20 -82 -23 l-23 -5 0 311 0 311 -120 0 -120 0 2 -832z m633 3
c106 -53 170 -149 182 -275 16 -174 -60 -316 -206 -385 -52 -24 -66 -26 -197
-26 -105 0 -145 3 -158 14 -15 12 -16 45 -14 335 l3 321 30 14 c58 28 130 41
213 37 68 -3 95 -9 147 -35z"/>
<path d="M2374 1656 c-96 -59 -100 -183 -8 -252 94 -72 235 -1 236 119 2 83
-56 147 -139 154 -38 3 -56 -1 -89 -21z"/>
<path d="M586 1199 c-181 -30 -335 -139 -412 -292 -37 -72 -64 -189 -64 -276
1 -292 166 -507 436 -567 111 -24 273 -16 374 20 41 14 78 30 82 34 4 4 -13
39 -38 77 -25 39 -49 76 -53 83 -6 10 -20 9 -72 -4 -186 -48 -374 30 -448 186
-23 49 -26 67 -26 170 0 106 2 120 28 172 39 80 111 142 194 168 76 23 176 26
251 6 l52 -13 52 85 c57 94 58 89 -29 122 -97 37 -219 48 -327 29z"/>
<path d="M1455 1193 c-109 -23 -190 -67 -272 -149 -80 -78 -120 -150 -149
-264 -25 -98 -15 -282 19 -373 88 -228 281 -357 537 -357 277 0 488 158 555
415 21 81 21 243 0 325 -33 130 -114 247 -222 321 -124 86 -303 118 -468 82z
m273 -223 c103 -45 174 -156 187 -297 17 -169 -53 -320 -178 -385 -63 -33
-193 -37 -268 -9 -66 25 -139 96 -169 164 -79 179 -24 421 116 508 88 54 213
62 312 19z"/>
<path d="M3157 1199 c-85 -9 -267 -50 -322 -73 l-35 -15 0 -520 0 -521 120 0
120 0 2 442 3 442 50 13 c28 8 102 15 165 16 103 2 120 0 163 -22 30 -15 58
-39 75 -64 l27 -41 3 -393 3 -394 122 3 122 3 3 330 c3 387 -6 511 -45 597
-74 166 -262 230 -576 197z"/>
<path d="M5495 1201 c-69 -11 -162 -39 -207 -62 l-38 -19 0 -105 0 -104 63 30
c62 28 189 59 247 59 118 0 201 -55 220 -145 6 -30 10 -71 8 -92 l-3 -38 -145
-6 c-217 -9 -332 -43 -412 -124 -59 -60 -81 -117 -81 -210 -1 -163 80 -259
256 -307 132 -36 390 -34 565 4 l52 11 0 417 c0 455 -2 471 -59 555 -33 49
-106 100 -174 120 -62 19 -221 27 -292 16z m293 -799 c2 -138 1 -153 -15 -160
-10 -4 -70 -7 -133 -7 -100 1 -121 4 -164 25 -61 30 -86 69 -86 137 0 83 49
127 175 156 11 3 65 4 120 4 l100 -2 3 -153z"/>
<path d="M6474 1196 c-171 -39 -263 -139 -272 -296 -9 -156 37 -244 160 -304
40 -20 115 -47 166 -61 163 -44 207 -79 207 -166 0 -84 -57 -123 -180 -124
-94 0 -194 29 -282 81 -30 19 -57 34 -59 34 -2 0 -4 -50 -4 -110 l0 -110 33
-20 c64 -40 157 -62 282 -67 218 -9 348 47 414 179 28 54 31 71 31 148 0 136
-36 210 -128 268 -48 31 -102 51 -256 97 -134 40 -179 100 -142 189 42 100
267 101 417 2 21 -14 41 -26 44 -26 3 0 5 49 5 108 l0 108 -47 23 c-107 53
-275 73 -389 47z"/>
<path d="M7505 1195 c-81 -17 -125 -37 -195 -86 -226 -158 -298 -533 -153
-795 39 -72 137 -164 214 -201 103 -51 183 -66 329 -60 136 5 215 22 300 65
l55 28 3 102 c2 67 -1 102 -8 102 -6 0 -37 -14 -70 -30 -92 -46 -177 -62 -305
-58 -96 3 -117 7 -165 32 -101 51 -171 140 -186 235 l-7 41 393 0 393 0 -6
123 c-9 188 -42 287 -129 382 -100 110 -288 159 -463 120z m226 -213 c69 -28
119 -104 133 -204 l7 -48 -270 0 c-305 0 -285 -7 -251 83 38 102 120 171 219
186 50 7 121 0 162 -17z"/>
<path d="M2330 625 l0 -556 123 3 122 3 3 553 2 552 -125 0 -125 0 0 -555z"/>
</g>
</svg>
