<svg width="166" height="40" viewBox="0 0 166 40" fill="none" xmlns="http://www.w3.org/2000/svg">
<g id="Group">
<g id="Group_2">
<path id="Vector" d="M36.5106 8.06763C36.0331 7.43052 35.1057 7.40162 34.5429 7.96442L28.2902 14.2158C27.8141 14.6919 27.7645 15.4391 28.0783 16.0349C29.3841 18.5131 29.3841 21.4867 28.0783 23.9663C27.7645 24.5622 27.8141 25.308 28.2902 25.7841L34.5429 32.0354C35.1057 32.5996 36.0331 32.5693 36.5106 31.9322C41.8111 24.8718 41.8111 15.1281 36.5106 8.06763Z" fill="white"/>
<path id="Vector_2" d="M8.55371 3.97537C7.91661 4.45423 7.88771 5.3803 8.45051 5.94448L14.7018 12.1958C15.1779 12.6719 15.9251 12.7215 16.521 12.4077C18.9992 11.1019 21.9728 11.1019 24.4524 12.4077C25.0483 12.7215 25.7941 12.6719 26.2702 12.1958L32.5215 5.94448C33.0857 5.3803 33.0554 4.45423 32.4183 3.97537C25.3579 -1.32512 15.6142 -1.32512 8.55371 3.97537Z" fill="white"/>
<path id="Vector_3" d="M26.2702 27.8041C25.7941 27.328 25.0483 27.2784 24.4524 27.5922C21.9728 28.898 18.9992 28.898 16.521 27.5922C15.9251 27.2784 15.1779 27.328 14.7018 27.8041L8.45051 34.0554C7.88771 34.6182 7.91661 35.5457 8.55371 36.0245C15.6142 41.325 25.3579 41.325 32.4183 36.0245C33.0554 35.5457 33.0857 34.6182 32.5215 34.0554L26.2702 27.8041Z" fill="white"/>
<path id="Vector_4" d="M12.895 16.0349C13.2088 15.4391 13.1592 14.6919 12.6831 14.2158L6.43178 7.96442C5.86761 7.40162 4.94153 7.43052 4.46267 8.06763C-0.837818 15.1281 -0.837818 24.8718 4.46267 31.9322C4.94153 32.5693 5.86761 32.5996 6.43178 32.0354L12.6831 25.7841C13.1592 25.308 13.2088 24.5622 12.895 23.9663C11.5892 21.4867 11.5892 18.5131 12.895 16.0349Z" fill="white"/>
</g>
<g id="Group_3">
<path id="Vector_5" d="M52.9873 28.4579H59.057C64.6492 28.4579 68.3769 25.2297 68.3769 20.3654C68.3769 15.5011 64.6492 12.2729 59.057 12.2729H52.9873V28.4579ZM56.671 25.5022V15.2273H59.057C62.376 15.2273 64.6258 17.2281 64.6258 20.3654C64.6258 23.5248 62.376 25.5022 59.057 25.5022H56.671Z" fill="white"/>
<path id="Vector_6" d="M75.7679 28.8214C78.5861 28.8214 80.8359 27.5485 81.5638 25.457L78.7003 24.7304C78.1994 25.684 77.199 26.3211 75.9042 26.3211C74.2447 26.3211 73.0847 25.2533 72.8122 23.6158H81.9505C81.9959 23.3654 81.9959 22.8893 81.9959 22.5934C81.9959 18.9332 79.4502 16.4563 75.7445 16.4563C71.9935 16.4563 69.335 18.9111 69.335 22.548C69.335 26.2977 71.9935 28.8214 75.7679 28.8214ZM72.7902 21.5242C73.0626 19.979 74.1304 18.9566 75.6537 18.9566C77.2224 18.9566 78.359 20.0478 78.5627 21.5242H72.7902Z" fill="white"/>
<path id="Vector_7" d="M83.7246 28.4579H87.5211V22.0249H94.3407V19.0692H87.5211V15.5011H95.3177V12.2729H83.7246V28.4579Z" fill="white"/>
<path id="Vector_8" d="M98.3464 15.2047C99.5284 15.2047 100.369 14.386 100.369 13.2274C100.369 12.0908 99.5284 11.25 98.3464 11.25C97.1644 11.25 96.3223 12.0908 96.3223 13.2274C96.3223 14.386 97.1644 15.2047 98.3464 15.2047ZM96.6635 28.4573H100.028V16.8188H96.6635V28.4573Z" fill="white"/>
<path id="Vector_9" d="M113.836 29.0259C117.769 29.0259 120.066 27.1394 120.066 24.1383C120.066 20.5014 116.769 19.8643 113.86 19.3868C111.496 19.0235 109.359 18.6369 109.359 16.5233C109.359 14.7963 110.768 13.6818 113.359 13.6818C116.109 13.6818 117.702 15.0234 117.702 17.2966H119.701C119.679 13.9088 117.292 11.864 113.359 11.864C109.495 11.864 107.29 13.7506 107.29 16.6375C107.29 20.1147 110.472 20.8647 113.359 21.3201C115.768 21.7054 117.996 22.0701 117.996 24.2745C117.996 26.0702 116.473 27.2068 113.86 27.2068C110.859 27.2068 109.108 25.729 109.086 23.2521H107.04C107.04 26.8202 109.631 29.0259 113.836 29.0259Z" fill="white"/>
<path id="Vector_10" d="M125.627 28.8209C127.468 28.8209 128.81 28.093 129.627 26.7747H129.832V28.4576H131.719V20.8426C131.719 18.2281 129.832 16.5466 126.854 16.5466C123.968 16.5466 122.081 18.0919 122.081 20.5234H123.99C123.968 19.0923 125.104 18.2515 126.831 18.2515C128.719 18.2515 129.832 19.2505 129.832 20.7972V21.2513L126.649 21.638C123.24 22.0246 121.513 23.5245 121.513 25.5473C121.513 27.5246 123.149 28.8209 125.627 28.8209ZM125.9 27.2522C124.354 27.2522 123.399 26.5931 123.399 25.5019C123.399 24.4341 124.309 23.5245 126.649 23.2287L129.832 22.8654V23.8878C129.832 25.8211 128.242 27.2522 125.9 27.2522Z" fill="white"/>
<path id="Vector_11" d="M137.167 28.4578H139.848L144.213 16.9775H142.281L138.598 26.9566H138.394L134.734 16.9775H132.802L137.167 28.4578Z" fill="white"/>
<path id="Vector_12" d="M150.933 28.9119C153.478 28.9119 155.546 27.7299 156.479 25.7745L154.911 24.9792C154.183 26.3428 152.683 27.207 150.978 27.207C148.636 27.207 146.954 25.6617 146.682 23.3431H156.843C156.865 23.0926 156.865 22.8202 156.865 22.5931C156.865 19.0691 154.342 16.5234 150.842 16.5234C147.296 16.5234 144.75 19.0691 144.75 22.5697C144.75 26.252 147.341 28.9119 150.933 28.9119ZM146.704 21.6836C147.023 19.6154 148.636 18.2283 150.751 18.2283C152.933 18.2283 154.546 19.6154 154.887 21.6836H146.704Z" fill="white"/>
<path id="Vector_13" d="M159.086 28.4578H160.974V22.2739C160.974 20.0021 162.178 18.4554 163.906 18.4554C164.337 18.4554 165.019 18.5462 165.61 18.7967V17.0463C165.27 16.8647 164.724 16.7505 164.201 16.7505C162.928 16.7505 161.655 17.4784 161.132 18.5242H160.927V16.9775H159.086V28.4578Z" fill="white"/>
</g>
</g>
</svg>
