<svg xmlns:xlink="http://www.w3.org/1999/xlink" xmlns="http://www.w3.org/2000/svg" class="logo-svg" viewBox="0 0 182 34" width="182"  height="34" ><path d="M27.9424 9.49805L24.9536 11.226L21.9648 12.954" stroke="#FAF7EB" stroke-width="3.24998px" stroke-miterlimit="10" stroke-linecap="round"></path><path d="M21.9648 19.9668L24.9536 21.6948L27.9424 23.4227" stroke="#FAF7EB" stroke-width="3.24998px" stroke-miterlimit="10" stroke-linecap="round"></path><path d="M9.81744 12.9852L6.82864 11.2573L3.83984 9.5293" stroke="#FAF7EB" stroke-width="3.24998px" stroke-miterlimit="10" stroke-linecap="round"></path><path d="M3.83984 23.454L6.82864 21.726L9.81745 19.998" stroke="#FAF7EB" stroke-width="3.24998px" stroke-miterlimit="10" stroke-linecap="round"></path><path d="M15.9023 2.56055V30.3905" stroke="#FAF7EB" stroke-width="3.24998px" stroke-miterlimit="10" stroke-linecap="round"></path><path d="M50.122 27.0596C48.7407 27.0596 47.4807 26.817 46.342 26.3316C45.2033 25.8463 44.2233 25.151 43.402 24.2456C42.5807 23.331 41.946 22.2296 41.498 20.9416C41.0593 19.6443 40.84 18.1836 40.84 16.5596C40.84 14.413 41.2227 12.5556 41.988 10.9876C42.7533 9.41965 43.8313 8.21098 45.222 7.36165C46.6127 6.50298 48.246 6.07365 50.122 6.07365C52.3807 6.07365 54.2007 6.60098 55.582 7.65565C56.9633 8.70098 57.9153 10.1336 58.438 11.9536L55.918 12.4716C55.498 11.249 54.8073 10.2736 53.846 9.54565C52.8847 8.81765 51.6853 8.45365 50.248 8.45365C48.7453 8.44431 47.4947 8.78031 46.496 9.46165C45.5067 10.1336 44.76 11.081 44.256 12.3036C43.752 13.5263 43.4953 14.945 43.486 16.5596C43.4767 18.165 43.724 19.5743 44.228 20.7876C44.732 22.001 45.4833 22.953 46.482 23.6436C47.49 24.325 48.7453 24.6703 50.248 24.6796C51.5453 24.689 52.6373 24.4416 53.524 23.9376C54.4107 23.4336 55.0967 22.7056 55.582 21.7536C56.0673 20.8016 56.3613 19.6583 56.464 18.3236H52.18V16.2656H59.096C59.124 16.4523 59.138 16.6763 59.138 16.9376C59.1473 17.1896 59.152 17.3623 59.152 17.4556C59.152 19.2943 58.8067 20.9416 58.116 22.3976C57.4347 23.8443 56.422 24.983 55.078 25.8136C53.7433 26.6443 52.0913 27.0596 50.122 27.0596ZM61.6683 26.6396V6.05965H64.1603V26.6396H61.6683ZM74.2409 27.0596C72.7383 27.0596 71.4409 26.719 70.3489 26.0376C69.2663 25.3563 68.4309 24.4136 67.8429 23.2096C67.2549 22.0056 66.9609 20.6243 66.9609 19.0656C66.9609 17.479 67.2596 16.0883 67.8569 14.8936C68.4543 13.699 69.2989 12.7703 70.3909 12.1076C71.4829 11.4356 72.7663 11.0996 74.2409 11.0996C75.7529 11.0996 77.0549 11.4403 78.1469 12.1216C79.2389 12.7936 80.0743 13.7316 80.6529 14.9356C81.2409 16.1303 81.5349 17.507 81.5349 19.0656C81.5349 20.643 81.2409 22.0336 80.6529 23.2376C80.0649 24.4323 79.2249 25.3703 78.1329 26.0516C77.0409 26.7236 75.7436 27.0596 74.2409 27.0596ZM74.2409 24.6936C75.8089 24.6936 76.9756 24.171 77.7409 23.1256C78.5063 22.0803 78.8889 20.727 78.8889 19.0656C78.8889 17.3576 78.5016 15.9996 77.7269 14.9916C76.9523 13.9743 75.7903 13.4656 74.2409 13.4656C73.1863 13.4656 72.3183 13.7036 71.6369 14.1796C70.9556 14.6556 70.4469 15.3136 70.1109 16.1536C69.7749 16.9936 69.6069 17.9643 69.6069 19.0656C69.6069 20.7643 69.9989 22.127 70.7829 23.1536C71.5669 24.1803 72.7196 24.6936 74.2409 24.6936ZM87.2773 26.6396L82.6573 11.5056L85.1353 11.5196L88.5093 22.5796L91.9113 11.5196H94.1093L97.4973 22.5796L100.885 11.5196H103.349L98.7293 26.6396H96.6573L93.0033 15.1456L89.3493 26.6396H87.2773ZM114.04 27.0596C112.658 27.0596 111.398 26.817 110.26 26.3316C109.121 25.8463 108.141 25.151 107.32 24.2456C106.498 23.331 105.864 22.2296 105.416 20.9416C104.977 19.6443 104.758 18.1836 104.758 16.5596C104.758 14.413 105.14 12.5556 105.906 10.9876C106.671 9.41965 107.749 8.21098 109.14 7.36165C110.53 6.50298 112.164 6.07365 114.04 6.07365C116.298 6.07365 118.118 6.60098 119.5 7.65565C120.881 8.70098 121.833 10.1336 122.356 11.9536L119.836 12.4716C119.416 11.249 118.725 10.2736 117.764 9.54565C116.802 8.81765 115.603 8.45365 114.166 8.45365C112.663 8.44431 111.412 8.78031 110.414 9.46165C109.424 10.1336 108.678 11.081 108.174 12.3036C107.67 13.5263 107.413 14.945 107.404 16.5596C107.394 18.165 107.642 19.5743 108.146 20.7876C108.65 22.001 109.401 22.953 110.4 23.6436C111.408 24.325 112.663 24.6703 114.166 24.6796C115.463 24.689 116.555 24.4416 117.442 23.9376C118.328 23.4336 119.014 22.7056 119.5 21.7536C119.985 20.8016 120.279 19.6583 120.382 18.3236H116.098V16.2656H123.014C123.042 16.4523 123.056 16.6763 123.056 16.9376C123.065 17.1896 123.07 17.3623 123.07 17.4556C123.07 19.2943 122.724 20.9416 122.034 22.3976C121.352 23.8443 120.34 24.983 118.996 25.8136C117.661 26.6443 116.009 27.0596 114.04 27.0596ZM125.306 26.6396V11.5196H127.532V15.1736L127.168 14.6976C127.345 14.231 127.574 13.8016 127.854 13.4096C128.143 13.0176 128.465 12.6956 128.82 12.4436C129.212 12.1263 129.655 11.8836 130.15 11.7156C130.645 11.5476 131.149 11.4496 131.662 11.4216C132.175 11.3843 132.656 11.417 133.104 11.5196V13.8576C132.581 13.7176 132.007 13.6803 131.382 13.7456C130.757 13.811 130.178 14.0396 129.646 14.4316C129.161 14.777 128.783 15.197 128.512 15.6916C128.251 16.1863 128.069 16.723 127.966 17.3016C127.863 17.871 127.812 18.4543 127.812 19.0516V26.6396H125.306ZM141.47 27.0596C139.986 27.0596 138.688 26.733 137.578 26.0796C136.476 25.417 135.618 24.4976 135.002 23.3216C134.386 22.1363 134.078 20.755 134.078 19.1776C134.078 17.5256 134.381 16.0976 134.988 14.8936C135.594 13.6803 136.439 12.747 137.522 12.0936C138.614 11.431 139.892 11.0996 141.358 11.0996C142.879 11.0996 144.172 11.4496 145.236 12.1496C146.309 12.8496 147.112 13.8483 147.644 15.1456C148.185 16.443 148.418 17.9876 148.344 19.7796H145.824V18.8836C145.796 17.0263 145.418 15.6403 144.69 14.7256C143.962 13.8016 142.879 13.3396 141.442 13.3396C139.902 13.3396 138.73 13.8343 137.928 14.8236C137.125 15.813 136.724 17.2316 136.724 19.0796C136.724 20.8623 137.125 22.2436 137.928 23.2236C138.73 24.2036 139.874 24.6936 141.358 24.6936C142.356 24.6936 143.224 24.465 143.962 24.0076C144.699 23.5503 145.278 22.8923 145.698 22.0336L148.092 22.8596C147.504 24.1943 146.617 25.2303 145.432 25.9676C144.256 26.6956 142.935 27.0596 141.47 27.0596ZM135.884 19.7796V17.7776H147.056V19.7796H135.884ZM157.453 27.0596C155.969 27.0596 154.671 26.733 153.561 26.0796C152.459 25.417 151.601 24.4976 150.985 23.3216C150.369 22.1363 150.061 20.755 150.061 19.1776C150.061 17.5256 150.364 16.0976 150.971 14.8936C151.577 13.6803 152.422 12.747 153.505 12.0936C154.597 11.431 155.875 11.0996 157.341 11.0996C158.862 11.0996 160.155 11.4496 161.219 12.1496C162.292 12.8496 163.095 13.8483 163.627 15.1456C164.168 16.443 164.401 17.9876 164.327 19.7796H161.807V18.8836C161.779 17.0263 161.401 15.6403 160.673 14.7256C159.945 13.8016 158.862 13.3396 157.425 13.3396C155.885 13.3396 154.713 13.8343 153.911 14.8236C153.108 15.813 152.707 17.2316 152.707 19.0796C152.707 20.8623 153.108 22.2436 153.911 23.2236C154.713 24.2036 155.857 24.6936 157.341 24.6936C158.339 24.6936 159.207 24.465 159.945 24.0076C160.682 23.5503 161.261 22.8923 161.681 22.0336L164.075 22.8596C163.487 24.1943 162.6 25.2303 161.415 25.9676C160.239 26.6956 158.918 27.0596 157.453 27.0596ZM151.867 19.7796V17.7776H163.039V19.7796H151.867ZM177.24 26.6396V19.0656C177.24 18.347 177.174 17.6563 177.044 16.9936C176.922 16.331 176.703 15.7383 176.386 15.2156C176.078 14.6836 175.658 14.2636 175.126 13.9556C174.603 13.6476 173.94 13.4936 173.138 13.4936C172.512 13.4936 171.943 13.601 171.43 13.8156C170.926 14.021 170.492 14.3383 170.128 14.7676C169.764 15.197 169.479 15.7383 169.274 16.3916C169.078 17.0356 168.98 17.7963 168.98 18.6736L167.342 18.1696C167.342 16.7043 167.603 15.449 168.126 14.4036C168.658 13.349 169.4 12.5416 170.352 11.9816C171.313 11.4123 172.442 11.1276 173.74 11.1276C174.72 11.1276 175.555 11.2816 176.246 11.5896C176.936 11.8976 177.51 12.3083 177.968 12.8216C178.425 13.3256 178.784 13.895 179.046 14.5296C179.307 15.155 179.489 15.7943 179.592 16.4476C179.704 17.0916 179.76 17.703 179.76 18.2816V26.6396H177.24ZM166.46 26.6396V11.5196H168.7V15.5656H168.98V26.6396H166.46Z" fill="#FAF7EB"></path></svg>