<svg width="228" height="40" viewBox="0 0 228 40" fill="none" xmlns="http://www.w3.org/2000/svg">
  <g id="Goldfinch 1" clip-path="url(#clip0_157_10732)">
    <path id="Vector" d="M54.2695 23.1427C54.2695 30.15 59.1746 35.931 68.0739 35.931C72.3484 35.931 75.887 34.8449 78.4447 33.2682V27.6274C78.4447 25.9106 78.5498 25.2098 80.617 25.0347V23.1777H69.7206V25.0347C72.2082 25.1398 73.0841 25.5602 73.0841 27.6274V32.2171C72.033 33.0931 70.7717 33.4785 68.7046 33.4785C62.7834 33.4785 60.1206 28.1879 60.1206 21.9164C60.1206 16.5208 62.2228 11.7208 67.8637 11.7208C71.8228 11.7208 74.0301 13.6828 75.3615 17.712H77.779L77.6389 11.931C75.7119 10.5296 72.6637 9.37334 68.3542 9.37334C60.506 9.3383 54.2695 14.6639 54.2695 23.1427Z" fill="white"/>
    <path id="Vector_2" d="M93.3708 33.7237C90.1825 33.7237 88.5357 30.4653 88.5357 25.7354C88.5357 22.1267 89.6219 19.569 92.3547 19.569C95.508 19.569 97.1547 22.8274 97.1547 27.5573C97.1547 31.1661 96.1387 33.7237 93.3708 33.7237ZM92.5299 35.931C98.1007 35.931 102.445 32.2172 102.445 26.296C102.445 21.1807 98.7664 17.3267 93.1956 17.3267C87.6248 17.3267 83.2803 21.0405 83.2803 26.9617C83.2803 32.1121 86.9241 35.931 92.5299 35.931Z" fill="white"/>
    <path id="Vector_3" d="M111.485 11.5806L111.66 8.67261H110.434L104.372 10.1792V11.1602L106.545 12.5617V31.9719C106.545 33.5135 105.739 33.6536 104.197 33.8638V35.5806H113.867V33.8638C112.326 33.6536 111.485 33.5135 111.485 31.9719V11.5806Z" fill="white"/>
    <path id="Vector_4" d="M125.85 19.4989C128.057 19.4989 129.599 20.7602 129.599 23.1777V31.2361C128.618 32.112 127.426 32.6025 125.955 32.6025C122.626 32.6025 121.015 29.7646 121.015 26.0157C121.015 21.9865 122.837 19.4989 125.85 19.4989ZM136.991 34.8098V33.023L136.15 32.9879C134.889 32.9179 134.539 32.4624 134.539 31.3412V11.5806L134.714 8.67261H133.488L127.426 10.1792V11.1602L129.599 12.5617V18.4478C128.547 17.7471 127.146 17.3266 125.429 17.3266C120.174 17.3266 115.864 21.2157 115.864 27.4522C115.864 32.4624 118.737 35.931 123.642 35.931C126.27 35.931 128.302 34.6347 129.599 32.7777L129.423 35.931H130.404L136.991 34.8098Z" fill="white"/>
    <path id="Vector_5" d="M159.344 17.642H146.871V15.8901C146.871 12.3865 147.782 10.5996 150.199 10.5996C151.811 10.5996 152.512 11.5806 152.512 13.2274V14.5587H156.226C157.102 14.1383 157.487 13.2274 157.487 12.2814C157.487 10.1441 155.525 8.67261 151.145 8.67261C145.434 8.67261 141.931 11.6857 141.931 16.696V17.1164L139.373 18.3076V19.8142H141.931V31.9719C141.931 33.5135 141.125 33.6536 139.583 33.8638V35.5806H149.499V33.8638C147.607 33.6186 146.871 33.5135 146.871 31.9018V19.8142H154.193V31.9719C154.193 33.5135 153.388 33.6536 151.846 33.8638V35.5806H161.516V33.8638C159.975 33.6536 159.169 33.5135 159.169 31.9719V20.8653L159.344 17.642Z" fill="white"/>
    <path id="Vector_6" d="M178.51 31.9719C178.51 33.5135 177.704 33.6537 176.162 33.8639V35.5807H185.832V33.8639C184.291 33.6537 183.45 33.5135 183.45 31.9719V22.7573C183.45 18.9734 181.137 17.2916 177.844 17.2916C175.076 17.2916 172.659 18.9383 171.187 20.55L171.362 17.2216H170.136L164.075 18.9384V19.9194L166.247 21.496V31.9369C166.247 33.4785 165.441 33.6186 163.899 33.8289V35.5457H173.569V33.8289C172.028 33.6186 171.187 33.4785 171.187 31.9369V22.0216C172.343 21.2858 174.095 20.6551 175.672 20.6551C177.564 20.6551 178.51 21.3909 178.51 23.3529V31.9719Z" fill="white"/>
    <path id="Vector_7" d="M191.964 25.3499C191.964 21.601 193.821 19.4988 196.484 19.4988C198.656 19.4988 199.321 20.8652 199.321 22.8973V24.2988H202.545C203.386 23.9835 203.946 23.1426 203.946 21.9513C203.946 19.1484 201.143 17.3616 197.184 17.3616C191.578 17.3616 187.374 21.2506 187.374 27.2419C187.374 32.147 190.597 36.001 196.133 36.001C200.688 36.001 203.246 33.6185 204.332 30.3601L203.07 29.7295C201.949 31.1309 200.302 32.217 197.885 32.217C193.926 32.147 191.964 29.5192 191.964 25.3499Z" fill="white"/>
    <path id="Vector_8" d="M208.045 12.5617V31.9719C208.045 33.5135 207.239 33.6536 205.697 33.8638V35.5806H215.332V33.8638C213.791 33.6536 212.985 33.5135 212.985 31.9719V22.0566C214.106 21.3208 215.893 20.6901 217.434 20.6901C219.326 20.6901 220.307 21.4259 220.307 23.3879V31.9719C220.307 33.5135 219.502 33.6536 217.96 33.8638V35.5806H227.595V33.8638C226.053 33.6536 225.248 33.5135 225.248 31.9719V22.7573C225.248 18.9733 222.9 17.2916 219.607 17.2916C216.874 17.2916 214.456 18.9383 212.985 20.55V11.5456L213.16 8.63757H211.934L205.872 10.1441V11.1252L208.045 12.5617Z" fill="white"/>
    <path id="Vector_9" d="M30.9364 9.23314C30.1656 10.074 28.4137 10.074 27.6429 9.30322C26.8721 8.53241 26.6269 7.09592 27.6429 6.14993C28.659 5.23898 30.1656 5.5543 30.9364 6.22C31.7072 6.92073 31.7072 8.39226 30.9364 9.23314Z" fill="white"/>
    <path id="Vector_10" d="M22.9825 3.24183C22.1416 4.25788 21.8262 4.81847 21.1956 6.43015C20.3898 8.4973 19.654 10.8097 19.3737 12.2112C19.0934 13.6126 19.654 14.8389 21.0204 15.6798C22.4569 16.5557 23.9635 17.2564 26.0306 18.0272C28.0978 18.798 29.5693 19.8842 30.0598 21.0053C30.5503 22.1265 30.4102 24.2988 29.3591 26.3659C28.308 28.4331 26.8014 30.3601 24.2087 32.2521C21.616 34.144 19.8292 34.5995 17.2715 35.1951C14.7138 35.7907 15.5547 37.2272 16.4306 37.5426C17.3065 37.8228 19.2686 38.1382 21.8613 37.998C24.454 37.8929 27.0467 37.2272 30.1299 35.6856C33.2131 34.144 36.2262 31.4812 37.8379 27.9426C39.4496 24.4039 40.0803 19.3937 38.2233 16.2404C37.1372 14.4185 36.5766 13.963 36.2262 12.8068C35.8759 11.6506 36.0861 10.7747 36.7518 9.96884C37.1372 9.51336 37.9781 9.05788 38.7489 8.4973C39.3795 8.04183 40.1153 7.62139 40.6408 7.27102C41.1664 6.92066 41.3416 6.74548 40.9912 6.50023C40.6408 6.25497 39.9401 5.79949 38.6788 5.34402C37.4175 4.88854 37.2073 4.81847 36.7168 4.78343C36.2613 4.7484 35.6657 5.16883 34.7197 5.86956C33.7737 6.57029 33.3533 6.71044 33.2832 7.51628C33.2131 8.32212 33.0029 9.33818 32.3372 10.2491C31.6715 11.125 30.8306 11.5805 29.6394 11.6856C28.4832 11.7907 26.9065 11.4404 26.1007 10.5294C25.3299 9.61847 25.0146 9.09292 25.0146 7.83161C25.0146 6.53526 25.5051 5.62431 26.1708 4.99365C26.8365 4.32796 26.8014 4.11774 26.8014 3.80241C26.8014 3.52212 26.6613 2.50606 26.5211 2.05059C26.381 1.59511 25.9255 1.52504 25.1547 1.77029C24.454 1.94548 23.8233 2.22577 22.9825 3.24183Z" fill="white"/>
    <path id="Vector_11" d="M11.2456 27.8725C10.8602 27.9777 10.5799 28.6083 9.84411 29.9397C9.10834 31.236 8.37257 32.182 7.04119 33.6536C5.7098 35.0901 4.83389 35.7207 2.69666 37.0171L2.62659 37.0521C0.524401 38.3134 -0.0712209 38.6988 -0.246403 39.0842C-0.386549 39.4696 -0.316475 39.9952 1.26017 40.2404C2.83681 40.4857 4.13316 40.5207 6.41053 38.9791C8.6879 37.4375 10.4748 35.9309 12.8222 34.8098C15.1697 33.7236 15.9054 33.7937 18.5682 33.0229C21.1959 32.2521 23.6134 30.7455 25.2602 28.9236C26.9069 27.1017 27.7478 25.2448 28.0981 24.1937C28.4485 23.1426 28.4835 21.7412 27.5726 21.0404C26.6967 20.3747 26.2412 20.1645 24.3492 19.4638C22.3171 18.728 21.6514 18.5178 20.1799 17.3616C18.7784 16.2755 18.8485 15.9952 17.9726 15.8901C17.0967 15.7849 16.431 17.0813 16.1156 17.712C15.9054 18.2025 15.8704 19.0784 16.431 19.8842C16.9916 20.6901 17.5872 21.601 19.1989 22.512C20.8105 23.4229 21.5813 23.563 22.6675 23.7382C23.7886 23.9134 24.2091 24.1937 23.8937 24.6842C23.6135 25.2098 23.0178 25.455 22.0018 25.455C20.9857 25.455 19.5843 24.9996 18.1478 24.1587C17.1317 23.5631 16.431 22.9324 15.9054 22.2667C15.3799 21.636 15.0996 21.5309 14.6091 21.5309C14.1536 21.5309 13.7332 21.8112 13.1726 22.6521C12.612 23.493 12.1916 24.3689 12.1215 24.8594C12.0514 25.3499 12.0164 25.8755 12.8923 26.5412C13.7682 27.2068 14.539 27.5572 15.5551 27.7324C16.5711 27.9076 17.3419 28.2229 16.6062 28.8886C15.8704 29.5543 14.9594 29.4141 14.2587 29.239C13.558 29.0638 12.5069 28.5032 12.1215 28.2579C11.9113 27.9776 11.631 27.8025 11.2456 27.8725Z" fill="white"/>
    <path id="Vector_12" d="M33.6336 4.5033C34.1591 4.18797 34.7547 3.7325 34.7547 3.45221C34.7547 3.17192 34.4394 2.78651 33.1781 2.01571C31.9168 1.24491 30.165 0.333958 29.0088 0.193812C27.8526 0.0536658 28.3431 1.87556 28.4832 2.57629C28.6234 3.27702 28.6584 3.83761 29.1489 3.90768C29.6394 3.97776 29.9898 4.01279 30.4102 4.15294C30.8307 4.25805 31.3562 4.5033 31.9518 4.85367C32.5474 5.169 33.073 4.81863 33.6336 4.5033Z" fill="white"/>
  </g>
  <defs>
    <clipPath id="clip0_157_10732">
      <rect width="227.059" height="40" fill="white" transform="translate(0.540039)"/>
    </clipPath>
  </defs>
</svg>
