<svg width="105" height="36" viewBox="0 0 105 36" fill="none" xmlns="http://www.w3.org/2000/svg">
  <g id="6260572336892a801afd71e3_Kiln_Logo-Transparent-Dark 1" clip-path="url(#clip0_157_10779)">
    <path id="Vector" d="M69.5965 10.0682H64.3471C63.8193 10.0682 63.3926 10.4948 63.3926 11.0227V34.8828C63.3926 35.4107 63.8193 35.8371 64.3471 35.8371H69.5965C70.1242 35.8371 70.5506 35.4107 70.5506 34.8828V11.0227C70.5506 10.4948 70.1242 10.0682 69.5965 10.0682Z" fill="white"/>
    <path id="Vector_2" d="M83.4355 16.214V34.8828C83.4355 35.4107 83.8623 35.8371 84.3901 35.8371H89.6391C90.1668 35.8371 90.5936 35.4107 90.5936 34.8828V18.8531C90.5936 17.9529 91.3202 17.2263 92.2206 17.2263H96.1177C97.0177 17.2263 97.7443 17.9529 97.7443 18.8531V34.8828C97.7443 35.4107 98.1711 35.8371 98.6989 35.8371H103.948C104.476 35.8371 104.902 35.4107 104.902 34.8828V16.214C104.902 12.8194 102.151 10.0682 98.7565 10.0682H89.5814C86.1866 10.0682 83.4355 12.8194 83.4355 16.214Z" fill="white"/>
    <path id="Vector_3" d="M66.9721 0C64.7992 0 63.0352 1.7642 63.0352 3.93693C63.0352 6.10962 64.7992 7.87383 66.9721 7.87383C69.1447 7.87383 70.909 6.10962 70.909 3.93693C70.909 1.7642 69.1485 0 66.9721 0Z" fill="white"/>
    <path id="Vector_4" d="M79.6176 1.47852H74.3682C73.8405 1.47852 73.4141 1.90511 73.4141 2.43292V34.8827C73.4141 35.4104 73.8405 35.8371 74.3682 35.8371H79.6176C80.1454 35.8371 80.5721 35.4104 80.5721 34.8827V2.43292C80.5721 1.90511 80.1454 1.47852 79.6176 1.47852Z" fill="white"/>
    <path id="Vector_5" d="M61.8025 34.3513L54.5395 23.4588C54.3333 23.1515 54.3263 22.7502 54.5179 22.4321L61.1807 11.5179C61.5711 10.8817 61.1118 10.0646 60.3673 10.0646H54.7237C54.3913 10.0646 54.0841 10.2381 53.9104 10.5201L49.5831 17.6059C49.3989 17.9059 49.0735 18.1156 48.6939 18.1156C48.1155 18.1156 47.6454 17.6456 47.6454 17.0672V3.51032C47.6454 2.9825 47.219 2.55591 46.6908 2.55591H41.4418C40.9141 2.55591 40.4873 2.9825 40.4873 3.51032V34.8828C40.4873 35.4104 40.9141 35.8372 41.4418 35.8372H46.6908C47.219 35.8372 47.6454 35.4104 47.6454 34.8828V28.4007C47.6454 27.8223 48.1155 27.3524 48.6939 27.3524C49.0553 27.3524 49.3699 27.5331 49.5614 27.8115L54.6301 35.4143C54.8069 35.6781 55.1037 35.8407 55.4252 35.8407H61.0108C61.7734 35.8407 62.2289 34.9913 61.8059 34.3585" fill="white"/>
    <path id="Vector_6" d="M15.9363 11.8505C16.1279 11.6553 16.3918 11.536 16.6846 11.536C16.9774 11.536 17.2377 11.6517 17.4257 11.8433L22.0748 16.4924C22.4508 16.8683 23.0618 16.8683 23.4377 16.4924L27.136 12.7941C27.512 12.4181 27.512 11.8071 27.136 11.4312L19.3887 3.67299C17.8993 2.18355 15.4807 2.18355 13.9913 3.67299L6.23315 11.4312C5.85718 11.8071 5.85718 12.4181 6.23315 12.7941L9.93147 16.4924C10.3074 16.8683 10.9184 16.8683 11.2944 16.4924L15.9363 11.8505Z" fill="white"/>
    <path id="Vector_7" d="M32.2084 16.4959L30.5273 14.8148C30.1514 14.4388 29.5404 14.4388 29.1644 14.8148L17.426 26.5533C17.238 26.7412 16.9741 26.8606 16.6849 26.8606C16.3956 26.8606 16.1353 26.7449 15.9437 26.5569L4.20889 14.8148C3.83292 14.4388 3.22197 14.4388 2.84599 14.8148L1.16494 16.4959C-0.324511 17.9853 -0.324511 20.4039 1.16494 21.8933L13.9879 34.7163C15.4774 36.2058 17.8959 36.2058 19.3854 34.7163L32.2084 21.8933C33.6978 20.4039 33.6978 17.9853 32.2084 16.4959Z" fill="white"/>
  </g>
  <defs>
    <clipPath id="clip0_157_10779">
      <rect width="104.854" height="36" fill="white" transform="translate(0.0478516)"/>
    </clipPath>
  </defs>
</svg>
