<svg width="178" height="40" viewBox="0 0 178 40" fill="none" xmlns="http://www.w3.org/2000/svg">
<g id="63d125c3f51b6fd0269f9445_liquid-collective-lockup-dark 1" clip-path="url(#clip0_157_10745)">
<g id="Layer_1-2">
<g id="Group">
<g id="Group_2">
<path id="Vector" d="M47.6797 14.3419H49.8257V23.6959H57.7897V25.5999H47.6797V14.3419Z" fill="white"/>
<path id="Vector_2" d="M58.8477 14.3419H60.7217V16.0039H58.8477V14.3419ZM58.8477 17.4839H60.7217V25.5999H58.8477V17.4839Z" fill="white"/>
<path id="Vector_3" d="M69.38 24.754C68.58 25.328 67.824 25.872 66.192 25.872C63.896 25.872 61.916 24.24 61.916 21.49C61.916 19.028 63.594 17.214 66.268 17.214C68.052 17.214 68.988 18.122 69.412 18.53V17.486H71.256V28.382H69.382V24.756L69.38 24.754ZM69.38 19.932C68.806 19.464 68.034 18.814 66.674 18.814C65.238 18.814 63.818 19.72 63.818 21.548C63.818 23.376 65.164 24.268 66.614 24.268C67.898 24.268 68.654 23.648 69.38 23.09V19.932Z" fill="white"/>
<path id="Vector_4" d="M80.6537 25.6H78.8097V24.588C78.2517 25.162 77.4197 25.872 75.7717 25.872C74.1237 25.872 72.5977 25.162 72.5977 22.684V17.486H74.4717V21.99C74.4717 23.592 74.9557 24.272 76.2097 24.272C77.7057 24.272 78.3097 23.652 78.7797 23.078V17.486H80.6537V25.602V25.6Z" fill="white"/>
<path id="Vector_5" d="M82.376 14.3419H84.25V16.0039H82.376V14.3419ZM82.376 17.4839H84.25V25.5999H82.376V17.4839Z" fill="white"/>
<path id="Vector_6" d="M92.6376 24.5579C92.2136 24.9659 91.2776 25.8719 89.4176 25.8719C87.1216 25.8719 85.1416 24.2399 85.1416 21.4899C85.1416 19.0279 86.8196 17.2139 89.4936 17.2139C91.0496 17.2139 91.8056 17.7579 92.6076 18.3319V14.3419H94.4816V25.5999H92.6376V24.5579ZM92.6076 19.9339C92.0336 19.4659 91.2616 18.8159 89.9016 18.8159C88.4656 18.8159 87.0456 19.7219 87.0456 21.5499C87.0456 23.3779 88.3916 24.2699 89.8416 24.2699C91.1256 24.2699 91.8816 23.6499 92.6076 23.0919V19.9339Z" fill="white"/>
<path id="Vector_7" d="M112.963 21.686C112.751 22.91 111.875 25.872 106.827 25.872C103.351 25.872 100.615 23.938 100.615 19.932C100.615 16.728 102.625 14.34 106.993 14.34C111.905 14.34 112.629 17.528 112.797 18.118H110.651C110.531 17.74 109.683 16.184 107.115 16.184C104.077 16.184 102.809 17.892 102.809 20.174C102.809 22.698 104.637 24.028 106.995 24.028C109.503 24.028 110.607 22.532 110.819 21.686H112.965H112.963Z" fill="white"/>
<path id="Vector_8" d="M113.582 21.536C113.582 19.36 114.896 17.214 118.13 17.214C121.364 17.214 122.678 19.36 122.678 21.536C122.678 24.77 120.35 25.872 118.13 25.872C115.91 25.872 113.582 24.768 113.582 21.536ZM120.776 21.506C120.776 19.602 119.552 18.816 118.132 18.816C116.712 18.816 115.488 19.602 115.488 21.506C115.488 23.228 116.456 24.272 118.132 24.272C119.808 24.272 120.776 23.23 120.776 21.506Z" fill="white"/>
<path id="Vector_9" d="M123.874 14.3419H125.748V25.5999H123.874V14.3419Z" fill="white"/>
<path id="Vector_10" d="M127.319 14.3419H129.193V25.5999H127.319V14.3419Z" fill="white"/>
<path id="Vector_11" d="M139.304 23.1679C139.168 23.8339 138.08 25.8719 135.072 25.8719C132.064 25.8719 130.432 24.0579 130.432 21.5199C130.432 19.2239 131.944 17.2119 134.936 17.2119C137.988 17.2419 139.454 19.1319 139.454 22.0639H132.336C132.412 22.5779 132.698 24.2699 135.01 24.3599C136.188 24.3599 136.974 23.7999 137.246 23.1659H139.302L139.304 23.1679ZM137.46 20.6139C137.172 19.2379 136.236 18.7239 134.89 18.7239C133.908 18.7239 132.774 19.0559 132.396 20.6139H137.458H137.46Z" fill="white"/>
<path id="Vector_12" d="M149.112 22.698C148.856 23.832 147.722 25.872 144.744 25.872C142.144 25.872 140.014 24.602 140.014 21.338C140.014 19.208 141.692 17.228 144.578 17.212C147.556 17.198 148.824 18.904 148.96 20.28H147.086C146.904 19.63 146.104 18.814 144.698 18.814C142.93 18.814 141.918 20.114 141.918 21.412C141.918 22.968 142.75 24.268 144.548 24.268C146.166 24.268 146.98 23.422 147.148 22.696H149.112V22.698Z" fill="white"/>
<path id="Vector_13" d="M149.277 17.758H150.727V15.114H152.601V17.758H155.427V19.36H152.601V23.078C152.601 23.652 152.827 24.272 153.915 24.272C154.277 24.272 155.033 24.182 155.517 24.046V25.694C154.595 25.816 154.157 25.876 153.493 25.876C151.709 25.876 150.727 25.302 150.727 23.518V19.362H149.277V17.76V17.758Z" fill="white"/>
<path id="Vector_14" d="M156.56 14.3419H158.434V16.0039H156.56V14.3419ZM156.56 17.4839H158.434V25.5999H156.56V17.4839Z" fill="white"/>
<path id="Vector_15" d="M160.852 17.486L163.588 23.5L166.308 17.486H168.364L164.496 25.602H162.622L158.798 17.486H160.854H160.852Z" fill="white"/>
<path id="Vector_16" d="M176.962 23.1679C176.826 23.8339 175.738 25.8719 172.73 25.8719C169.722 25.8719 168.09 24.0579 168.09 21.5199C168.09 19.2239 169.602 17.2119 172.594 17.2119C175.646 17.2419 177.112 19.1319 177.112 22.0639H169.994C170.07 22.5779 170.356 24.2699 172.668 24.3599C173.846 24.3599 174.632 23.7999 174.904 23.1659H176.96L176.962 23.1679ZM175.118 20.6139C174.83 19.2379 173.894 18.7239 172.548 18.7239C171.566 18.7239 170.432 19.0559 170.054 20.6139H175.116H175.118Z" fill="white"/>
</g>
<path id="Vector_17" d="M40.5293 20C40.5293 18.426 39.9173 16.946 38.8033 15.834C37.7153 14.746 36.2753 14.14 34.7413 14.114C35.7653 13.054 36.3993 11.614 36.3993 10.026C36.3993 6.776 33.7553 4.132 30.5053 4.132C28.9193 4.132 27.4793 4.766 26.4173 5.79C26.3913 4.256 25.7853 2.816 24.6973 1.728C23.5833 0.612 22.1033 0 20.5293 0C18.9553 0 17.4753 0.612 16.3613 1.726C15.2733 2.814 14.6673 4.254 14.6393 5.788C13.5793 4.764 12.1393 4.132 10.5533 4.132C7.3033 4.132 4.6593 6.776 4.6593 10.026C4.6593 11.612 5.2933 13.052 6.3173 14.114C4.7833 14.14 3.3433 14.746 2.2553 15.834C1.1413 16.946 0.529297 18.426 0.529297 20C0.529297 21.574 1.1413 23.054 2.2553 24.168C3.3433 25.256 4.7833 25.862 6.3173 25.89C5.2933 26.95 4.6613 28.39 4.6613 29.976C4.6613 33.226 7.3053 35.87 10.5553 35.87C12.1413 35.87 13.5813 35.236 14.6413 34.214C14.6673 35.748 15.2733 37.188 16.3633 38.276C17.4773 39.39 18.9573 40.002 20.5313 40.002C22.1053 40.002 23.5853 39.388 24.6973 38.276C25.7853 37.188 26.3913 35.748 26.4173 34.212C27.4773 35.236 28.9173 35.87 30.5053 35.87C33.7553 35.87 36.3993 33.226 36.3993 29.976C36.3993 28.39 35.7653 26.95 34.7433 25.89C36.2773 25.864 37.7173 25.258 38.8053 24.168C39.9193 23.054 40.5313 21.574 40.5313 20H40.5293ZM24.6113 24.082V29.856L20.5293 25.774L16.4473 29.856V24.082H10.6753L14.7573 20L10.6753 15.918H16.4473V10.146L20.5293 14.228L24.6113 10.146V15.918H30.3833L26.3013 20L30.3833 24.082H24.6113ZM26.7173 10.026C26.7173 7.938 28.4173 6.238 30.5053 6.238C32.5933 6.238 34.2933 7.938 34.2933 10.026C34.2933 12.114 32.5933 13.814 30.5053 13.814H26.7173V10.026ZM17.8513 3.214C18.5893 2.476 19.5593 2.106 20.5293 2.106C21.4993 2.106 22.4693 2.476 23.2073 3.214C24.6833 4.692 24.6833 7.094 23.2073 8.572L20.5293 11.25L17.8513 8.572C17.1353 7.856 16.7413 6.906 16.7413 5.894C16.7413 4.882 17.1353 3.932 17.8513 3.216V3.214ZM10.5553 6.236C12.6433 6.236 14.3433 7.936 14.3433 10.024V13.812H10.5553C8.4673 13.812 6.7673 12.112 6.7673 10.024C6.7673 7.936 8.4673 6.236 10.5553 6.236ZM3.7433 17.322C4.4813 16.584 5.4513 16.214 6.4213 16.214C7.3913 16.214 8.3613 16.584 9.0993 17.322L11.7773 20L9.0993 22.678C8.3833 23.394 7.4333 23.788 6.4213 23.788C5.4093 23.788 4.4593 23.394 3.7433 22.678C2.2673 21.2 2.2673 18.798 3.7433 17.32V17.322ZM14.3413 29.976C14.3413 32.064 12.6413 33.764 10.5533 33.764C8.4653 33.764 6.7653 32.064 6.7653 29.976C6.7653 27.888 8.4653 26.188 10.5533 26.188H14.3413V29.976ZM23.2073 36.786C21.7293 38.264 19.3273 38.262 17.8493 36.786C16.3733 35.308 16.3733 32.906 17.8493 31.428L20.5273 28.75L23.2053 31.428C23.9213 32.144 24.3153 33.094 24.3153 34.106C24.3153 35.118 23.9213 36.07 23.2053 36.784L23.2073 36.786ZM33.1813 32.654C32.4653 33.368 31.5153 33.764 30.5033 33.764C28.4153 33.764 26.7153 32.064 26.7153 29.976V26.188H30.5033C31.5153 26.188 32.4653 26.582 33.1813 27.298C33.8973 28.014 34.2913 28.964 34.2913 29.976C34.2913 30.988 33.8973 31.94 33.1813 32.654ZM37.3133 22.68C36.5973 23.396 35.6473 23.79 34.6353 23.79C33.6233 23.79 32.6713 23.396 31.9573 22.68L29.2793 20.002L31.9573 17.324C33.4353 15.846 35.8373 15.848 37.3153 17.324C38.7913 18.802 38.7913 21.204 37.3153 22.682L37.3133 22.68Z" fill="white"/>
</g>
</g>
</g>
<defs>
<clipPath id="clip0_157_10745">
<rect width="176.584" height="40" fill="white" transform="translate(0.529297)"/>
</clipPath>
</defs>
</svg>
