<svg width="212" height="40" viewBox="0 0 212 40" fill="none" xmlns="http://www.w3.org/2000/svg">
  <g id="h-mono-white 1" clip-path="url(#clip0_157_10766)">
    <path id="Vector" d="M17.3191 33.3366H0.0429688V7.16064H4.08154V29.6346H17.3191V33.3366Z" fill="white"/>
    <path id="Vector_2" d="M27.9019 33.8602C26.1569 33.8602 24.524 33.4862 23.0033 32.7384C21.4826 31.9655 20.2611 30.8437 19.3387 29.3729C18.4163 27.8771 17.9551 26.1071 17.9551 24.0629C17.9551 22.0187 18.4163 20.2612 19.3387 18.7903C20.2611 17.2946 21.4826 16.1727 23.0033 15.4248C24.524 14.6521 26.1569 14.2656 27.9019 14.2656C29.622 14.2656 31.2425 14.6521 32.7632 15.4248C34.2839 16.1727 35.5054 17.2946 36.4278 18.7903C37.3502 20.2612 37.8114 22.0187 37.8114 24.0629C37.8114 26.1071 37.3502 27.8771 36.4278 29.3729C35.5054 30.8437 34.2839 31.9655 32.7632 32.7384C31.2425 33.4862 29.622 33.8602 27.9019 33.8602ZM27.9019 30.3077C28.9739 30.3077 29.9711 30.0584 30.8935 29.5599C31.8159 29.0363 32.5388 28.3009 33.0623 27.3536C33.6107 26.4063 33.885 25.3094 33.885 24.0629C33.885 22.8164 33.6107 21.7195 33.0623 20.7722C32.5388 19.8249 31.8159 19.102 30.8935 18.6034C29.9711 18.0799 28.9739 17.8181 27.9019 17.8181C26.805 17.8181 25.7954 18.0799 24.873 18.6034C23.9755 19.102 23.2526 19.8249 22.7041 20.7722C22.1557 21.7195 21.8815 22.8164 21.8815 24.0629C21.8815 25.3094 22.1557 26.4063 22.7041 27.3536C23.2526 28.3009 23.9755 29.0363 24.873 29.5599C25.7954 30.0584 26.805 30.3077 27.9019 30.3077Z" fill="white"/>
    <path id="Vector_3" d="M49.7957 33.8602C48.0505 33.8602 46.4175 33.4862 44.8967 32.7384C43.3763 31.9655 42.1544 30.8437 41.2322 29.3729C40.3098 27.8771 39.8486 26.1071 39.8486 24.0629C39.8486 22.0187 40.3098 20.2612 41.2322 18.7903C42.1544 17.2946 43.3763 16.1727 44.8967 15.4248C46.4175 14.6521 48.0505 14.2656 49.7957 14.2656C51.5157 14.2656 53.1359 14.6521 54.6567 15.4248C56.1775 16.1727 57.399 17.2946 58.3215 18.7903C59.2439 20.2612 59.705 22.0187 59.705 24.0629C59.705 26.1071 59.2439 27.8771 58.3215 29.3729C57.399 30.8437 56.1775 31.9655 54.6567 32.7384C53.1359 33.4862 51.5157 33.8602 49.7957 33.8602ZM49.7957 30.3077C50.8674 30.3077 51.8646 30.0584 52.787 29.5599C53.7095 29.0363 54.4324 28.3009 54.9557 27.3536C55.5041 26.4063 55.7784 25.3094 55.7784 24.0629C55.7784 22.8164 55.5041 21.7195 54.9557 20.7722C54.4324 19.8249 53.7095 19.102 52.787 18.6034C51.8646 18.0799 50.8674 17.8181 49.7957 17.8181C48.6988 17.8181 47.6889 18.0799 46.7664 18.6034C45.8691 19.102 45.1462 19.8249 44.5977 20.7722C44.0493 21.7195 43.7751 22.8164 43.7751 24.0629C43.7751 25.3094 44.0493 26.4063 44.5977 27.3536C45.1462 28.3009 45.8691 29.0363 46.7664 29.5599C47.6889 30.0584 48.6988 30.3077 49.7957 30.3077Z" fill="white"/>
    <path id="Vector_4" d="M66.7519 33.3366H62.8633V7.16064H66.7519V21.1087L73.1841 14.7891H78.0076L71.3144 21.3331L79.0175 33.3366H74.6047L68.5845 23.9881L66.7519 25.783V33.3366Z" fill="white"/>
    <path id="Vector_5" d="M87.593 33.8602C85.5237 33.8602 83.8037 33.3491 82.4326 32.327C81.0862 31.3049 80.0767 29.9836 79.4033 28.3632L82.5448 26.4187C82.9683 27.7151 83.6165 28.7372 84.4891 29.485C85.3617 30.233 86.4211 30.6069 87.6676 30.6069C88.6648 30.6069 89.4874 30.3701 90.1357 29.8964C90.8087 29.3978 91.1452 28.7497 91.1452 27.9519C91.1452 27.204 90.7963 26.6182 90.0982 26.1944C89.4252 25.7457 88.3283 25.3842 86.8074 25.11C84.8879 24.736 83.3423 24.0879 82.1707 23.1655C81.0239 22.2431 80.4503 20.9966 80.4503 19.426C80.4503 17.8305 81.0862 16.5716 82.3575 15.6492C83.654 14.7268 85.2371 14.2656 87.1068 14.2656C89.0264 14.2656 90.572 14.6521 91.7435 15.4248C92.9151 16.1727 93.8499 17.3195 94.5481 18.8651L91.706 20.5479C91.2825 19.4759 90.6718 18.6532 89.8738 18.0799C89.1011 17.4815 88.2037 17.1824 87.1815 17.1824C86.2342 17.1824 85.4487 17.3693 84.8256 17.7433C84.2025 18.0923 83.8907 18.6034 83.8907 19.2765C83.8907 19.9994 84.2771 20.5977 85.0499 21.0714C85.8479 21.545 87.0194 21.9314 88.565 22.2306C90.659 22.6544 92.2046 23.315 93.2021 24.2125C94.2239 25.085 94.7353 26.2941 94.7353 27.8397C94.7353 28.9366 94.4483 29.9462 93.8751 30.8686C93.3266 31.791 92.5039 32.5264 91.407 33.0749C90.3349 33.5984 89.0635 33.8602 87.593 33.8602Z" fill="white"/>
    <path id="Vector_6" d="M98.1514 33.3366V7.16064H108.921C110.741 7.16064 112.311 7.47227 113.633 8.09553C114.979 8.69384 116.001 9.55388 116.699 10.6757C117.422 11.7976 117.784 13.0814 117.784 14.5273C117.784 16.4469 117.247 18.0424 116.176 19.3138C115.104 20.5602 113.595 21.4577 111.651 22.0062L118.083 33.3366H113.52L107.276 22.3801H102.19V33.3366H98.1514ZM108.734 18.8277C110.379 18.8277 111.626 18.4911 112.473 17.818C113.321 17.12 113.745 16.0979 113.745 14.7517C113.745 13.4304 113.321 12.4333 112.473 11.7601C111.626 11.0621 110.379 10.7131 108.734 10.7131H102.19V18.8277H108.734Z" fill="white"/>
    <path id="Vector_7" d="M125.931 33.8602C124.086 33.8602 122.59 33.3367 121.444 32.2896C120.297 31.2177 119.724 29.8216 119.724 28.1015C119.724 26.3564 120.322 24.9853 121.518 23.9881C122.74 22.9909 124.298 22.3428 126.192 22.0436L132.101 21.1088V20.3609C132.101 19.2889 131.764 18.4787 131.091 17.9302C130.443 17.3818 129.496 17.1076 128.249 17.1076C127.028 17.1076 126.068 17.3569 125.37 17.8555C124.697 18.3291 124.36 18.9274 124.36 19.6504C124.36 19.8249 124.385 19.9869 124.435 20.1365L121.032 21.2957C120.833 20.8221 120.733 20.311 120.733 19.7626C120.733 18.7903 121.032 17.8929 121.63 17.0702C122.254 16.2226 123.139 15.5495 124.286 15.0509C125.432 14.5274 126.754 14.2656 128.249 14.2656C130.742 14.2656 132.649 14.8141 133.971 15.911C135.317 17.0079 135.99 18.6034 135.99 20.6974V28.7372C135.99 29.7842 136.077 30.6443 136.252 31.3174C136.426 31.9655 136.738 32.6387 137.187 33.3367H133.26C132.587 32.4641 132.251 31.3672 132.251 30.046C131.677 31.2426 130.817 32.1775 129.67 32.8505C128.548 33.5236 127.302 33.8602 125.931 33.8602ZM126.754 30.6443C128.349 30.6443 129.633 30.0709 130.605 28.9241C131.602 27.7525 132.101 26.2567 132.101 24.4368V23.9133L127.053 24.7734C125.906 24.9728 125.021 25.3343 124.398 25.8578C123.8 26.3813 123.5 27.0669 123.5 27.9145C123.5 28.7621 123.787 29.4352 124.36 29.9338C124.959 30.4074 125.757 30.6443 126.754 30.6443Z" fill="white"/>
    <path id="Vector_8" d="M140.064 33.3367V14.7892H143.954V17.9302C144.452 16.8084 145.15 15.9234 146.048 15.2753C146.97 14.6022 148.005 14.2656 149.151 14.2656C149.7 14.2656 150.236 14.3404 150.759 14.49L150.123 18.0799C149.65 17.9053 149.151 17.8181 148.628 17.8181C147.257 17.8181 146.135 18.4039 145.262 19.5756C144.39 20.7224 143.954 22.1434 143.954 23.8385V33.3367H140.064Z" fill="white"/>
    <path id="Vector_9" d="M160.436 33.8602C158.741 33.8602 157.17 33.4488 155.724 32.6262C154.303 31.8035 153.169 30.6443 152.321 29.1485C151.474 27.6528 151.05 25.9575 151.05 24.0629C151.05 22.1683 151.474 20.4855 152.321 19.0147C153.169 17.5189 154.315 16.3597 155.762 15.537C157.232 14.6894 158.853 14.2656 160.623 14.2656C162.392 14.2656 163.951 14.6645 165.297 15.4622C166.668 16.2351 167.727 17.332 168.475 18.7529C169.223 20.149 169.597 21.7445 169.597 23.5394V24.8856H154.789C154.914 26.5559 155.5 27.9145 156.547 28.9615C157.594 30.0086 158.915 30.5321 160.51 30.5321C161.882 30.5321 163.016 30.2205 163.913 29.5973C164.811 28.9491 165.571 28.0142 166.195 26.7927L169.036 28.438C168.139 30.2579 166.992 31.6166 165.596 32.514C164.2 33.4114 162.48 33.8602 160.436 33.8602ZM165.895 21.8566C165.745 20.4357 165.172 19.3263 164.175 18.5286C163.178 17.7059 161.956 17.2946 160.51 17.2946C159.115 17.2946 157.905 17.7308 156.883 18.6034C155.861 19.4509 155.188 20.5354 154.864 21.8566H165.895Z" fill="white"/>
    <path id="Vector_10" fill-rule="evenodd" clip-rule="evenodd" d="M194.083 22.6375C191.149 22.6375 188.77 20.26 188.77 17.3245C188.77 14.389 191.149 12.0115 194.083 12.0115C197.015 12.0115 199.396 14.389 199.396 17.3245C199.396 20.26 197.015 22.6375 194.083 22.6375ZM191.772 17.3245C191.772 18.6008 192.807 19.6345 194.083 19.6345C195.358 19.6345 196.392 18.6008 196.392 17.3245C196.392 16.0482 195.358 15.0145 194.083 15.0145C192.807 15.0145 191.772 16.0482 191.772 17.3245Z" fill="white"/>
    <path id="Vector_11" fill-rule="evenodd" clip-rule="evenodd" d="M176.989 17.3315L187.153 7.16052H201.013L211.177 17.3315L194.083 34.4185L176.989 17.3315ZM201.937 13.6284C197.619 9.29087 190.548 9.29091 186.229 13.6285L182.533 17.3245L186.229 21.0206C190.548 25.3581 197.619 25.3581 201.937 21.0205L205.633 17.3245L201.937 13.6284Z" fill="white"/>
  </g>
  <defs>
    <clipPath id="clip0_157_10766">
      <rect width="211.134" height="40" fill="white" transform="translate(0.0429688)"/>
    </clipPath>
  </defs>
</svg>
