<svg width="141" height="40" viewBox="0 0 141 40" fill="none" xmlns="http://www.w3.org/2000/svg">
  <g id="Group">
    <path id="Vector" d="M33.9066 33.7013L37.9326 10.671H44.1447L48.9932 22.9437L53.7984 10.671H60.0105L64.1014 33.7013H57.846L55.7681 20.368L50.0538 33.7013H47.5646L42.1533 20.368L40.0754 33.7013H33.9066ZM66.9152 12.0563C66.9152 11.645 67.0018 11.2338 67.175 10.8442C67.3481 10.4762 67.6079 10.1515 67.8893 9.87013C68.1707 9.5671 68.517 9.329 68.8849 9.15584C69.2962 9.00433 69.7075 8.91775 70.1404 8.91775C71.0061 8.8961 71.8503 9.22078 72.4564 9.82684C72.7594 10.1082 72.9975 10.4329 73.149 10.8009C73.3222 11.1905 73.4304 11.6017 73.4088 12.013C73.4088 12.4242 73.3222 12.8355 73.149 13.2251C72.9975 13.5931 72.7594 13.9394 72.4564 14.2208C72.1533 14.5022 71.807 14.7403 71.4174 14.8918C71.0278 15.0649 70.5949 15.1515 70.1404 15.1299C69.7075 15.1299 69.2746 15.0433 68.8849 14.8918C68.4953 14.7186 68.149 14.5022 67.846 14.2208C67.5429 13.9394 67.3049 13.5931 67.1317 13.2251C66.9585 12.8355 66.8503 12.4459 66.8287 12.013L66.9152 12.0563ZM73.1057 18.0736V33.7446H67.2183V18.0303L73.1057 18.0736ZM76.7637 18.0736H82.5646V20.6494C83.149 19.7619 83.9282 19.026 84.8373 18.5065C85.8113 17.987 86.8936 17.7273 87.9975 17.7706H88.4737C88.6901 17.7489 88.9066 17.7489 89.1014 17.7706V23.0519C88.3222 22.684 87.4564 22.4892 86.6122 22.4892C85.4867 22.4026 84.3611 22.8355 83.5819 23.6364C82.846 24.5887 82.4997 25.7792 82.5646 26.9697V33.6364H76.6988L76.7637 18.0736ZM91.3958 18.0736H97.1966V20.6494C97.7594 19.7619 98.5603 19.026 99.4694 18.5065C100.422 17.987 101.504 17.7273 102.608 17.7706H103.106C103.322 17.7489 103.517 17.7489 103.733 17.7706V23.0519C102.954 22.684 102.088 22.4892 101.223 22.4892C100.097 22.4026 98.9932 22.8355 98.1923 23.6364C97.4564 24.5887 97.11 25.7792 97.175 26.9697V33.6364H91.2875L91.3958 18.0736ZM105.487 25.7576C105.487 24.632 105.746 23.5281 106.244 22.5108C106.72 21.4935 107.435 20.6061 108.301 19.8918C109.231 19.1126 110.292 18.5281 111.439 18.1385C112.716 17.7056 114.036 17.4675 115.378 17.4892C116.72 17.4892 118.041 17.7056 119.318 18.1169C120.465 18.4848 121.526 19.0476 122.478 19.7836C123.344 20.5195 124.058 21.4286 124.534 22.4459C125.01 23.4848 125.27 24.632 125.27 25.7792C125.27 26.9264 125.01 28.0736 124.534 29.1126C124.036 30.1299 123.322 31.039 122.478 31.7749C121.547 32.5325 120.465 33.0952 119.318 33.4416C118.019 33.8745 116.677 34.0693 115.314 34.0476C113.993 34.0693 112.673 33.8528 111.417 33.4416C110.292 33.0952 109.231 32.5325 108.322 31.7749C107.456 31.039 106.764 30.1082 106.288 29.0693C105.768 28.0303 105.487 26.9048 105.465 25.7359L105.487 25.7576ZM111.612 25.7576C111.612 26.2554 111.699 26.7532 111.915 27.2078C112.132 27.6407 112.391 28.0303 112.716 28.355C113.062 28.7013 113.452 28.961 113.907 29.1126C114.361 29.2857 114.859 29.3939 115.357 29.3723C115.855 29.3723 116.352 29.2857 116.829 29.1126C117.262 28.9394 117.673 28.6797 117.997 28.355C118.322 28.0087 118.604 27.6407 118.798 27.2078C119.188 26.3203 119.188 25.2814 118.798 24.3939C118.604 23.961 118.344 23.5931 117.997 23.2684C117.651 22.9437 117.262 22.684 116.829 22.5108C116.352 22.3377 115.855 22.2294 115.357 22.2294C114.859 22.2294 114.361 22.316 113.907 22.5108C113.452 22.684 113.041 22.9437 112.716 23.2684C112.391 23.5931 112.11 23.961 111.915 24.3939C111.699 24.8268 111.569 25.303 111.526 25.8009L111.612 25.7576ZM128.279 18.0087H134.08V20.5628C134.664 19.6753 135.443 18.9394 136.352 18.4199C137.327 17.9004 138.409 17.6407 139.513 17.6623H139.989C140.205 17.6407 140.4 17.6407 140.617 17.6623V22.9437C139.837 22.5758 138.972 22.381 138.127 22.381C136.98 22.2944 135.876 22.7273 135.097 23.5281C134.361 24.4805 134.015 25.671 134.08 26.8615V33.5281H128.171L128.279 18.0087ZM17.4131 7.74892V1.34199L11.807 0V6.40692L6.20095 5.08658V11.5151L0.573242 10.1948V30.9091L6.1793 32.2511V38.658L11.7854 40V33.5931L17.3914 34.9134V28.4849L22.9975 29.8268V9.11255L17.4131 7.74892ZM12.9326 29.5671L5.07541 27.7056V15.5411L12.9326 17.4242V29.5671Z" fill="white"/>
  </g>
</svg>
