<svg width="156" height="36" viewBox="0 0 156 36" fill="none" xmlns="http://www.w3.org/2000/svg">
  <g id="NFTX_logotype_on_black 1">
    <path id="Vector" d="M1.78418 2.47986H11.4363L27.9251 20.4881C28.9536 21.7391 29.8467 22.8116 30.4276 24.0624H30.6076V2.47986H38.7847V34.2064H29.8019L12.6875 16.02C11.839 15.0369 10.6319 13.4282 10.1403 12.4004H9.96158V34.2061H1.78444L1.78418 2.47986Z" fill="white"/>
    <path id="Vector_2" d="M51.1488 9.55077V15.4833H73.4022V22.3045H51.1488V34.2064H42.123V2.47986H74.163V9.55129L51.1488 9.55077Z" fill="white"/>
    <path id="Vector_3" d="M112.297 9.55079H99.1146V34.2622H90.0889V9.55079H76.9062V2.53516H112.297V9.55079Z" fill="white"/>
    <path id="Vector_4" d="M112.25 9.49551H99.0682V34.2069H90.0425V9.49551L76.8604 9.5508V2.47937H112.25V9.49551Z" fill="white"/>
    <path id="Vector_5" d="M151.94 2.47583H142.794L134.323 11.4751L140.005 17.2716L151.94 4.53709V2.47583Z" fill="white"/>
    <path id="Vector_6" d="M136.581 18.1113H134.996H127.574L127.562 18.1247L114.935 31.9842V34.2956H124.388L137.791 19.3346L136.581 18.1113Z" fill="white"/>
    <path id="Vector_7" opacity="0.5" d="M124.389 31.9384V34.2956L137.791 19.3345L136.581 18.1116L124.389 31.9384Z" fill="white"/>
    <path id="Vector_8" opacity="0.5" d="M151.94 2.48499L138.926 16.1601L140.007 17.2699L151.94 4.53776V2.48499Z" fill="white"/>
    <path id="Vector_9" d="M118.533 8.27436L121.539 11.367C122.109 10.961 122.514 10.5627 122.951 10.1327C123.784 9.31193 124.728 8.38184 126.871 7.3993C127.909 6.92359 128.753 6.65359 129.481 6.49004L126.344 3.27576C125.765 3.40947 125.108 3.62779 124.266 4.01401C122.508 4.82144 121.824 5.49619 121.033 6.27687C120.412 6.8899 119.729 7.56361 118.533 8.27436Z" fill="white"/>
    <path id="Vector_10" d="M142.506 25.2257C141.39 25.3172 140.427 25.3964 138.653 26.2067C137.907 26.5479 137.353 26.8652 136.901 27.1769L139.918 30.2785C140.309 30.052 140.752 29.8219 141.263 29.5884C143.419 28.6045 144.746 28.4958 145.917 28.3993C147.035 28.3075 148 28.2283 149.778 27.4173C149.809 27.4029 149.837 27.389 149.868 27.3749L146.772 24.2048C144.842 25.0323 143.605 25.1341 142.506 25.2257Z" fill="white"/>
    <path id="Vector_11" d="M124.622 11.827C124.219 12.2238 123.79 12.6463 123.212 13.087L126.125 16.0848C126.265 15.9524 126.402 15.8179 126.542 15.6798C127.377 14.859 128.323 13.9289 130.469 12.9461C132.349 12.0852 133.597 11.8952 134.66 11.7969L131.538 8.59705C130.492 8.68422 129.542 8.79196 127.863 9.56185C126.1 10.3698 125.415 11.045 124.622 11.827Z" fill="white"/>
    <path id="Vector_12" d="M140.007 17.2715L136.774 13.9629C136.232 14.0549 135.753 14.0951 135.298 14.1321C134.186 14.2234 133.226 14.3021 131.459 15.111C129.774 15.8825 129.071 16.5335 128.319 17.271L127.561 18.126L127.573 18.1127H134.994C136.64 17.5084 137.813 17.4852 138.804 17.404C139.21 17.3695 139.595 17.3374 140.007 17.2715Z" fill="white"/>
    <path id="Vector_13" d="M154.276 31.8927L151.614 29.1654C151.353 29.3032 151.071 29.4421 150.764 29.5822C148.608 30.5661 147.281 30.6751 146.109 30.7713C144.992 30.8631 144.027 30.9423 142.249 31.7535C142.029 31.8538 141.826 31.9521 141.637 32.049L143.777 34.2512H154.275L154.276 31.8927Z" fill="white"/>
    <path id="Vector_14" d="M141.841 19.1528C140.628 19.5349 139.726 19.6103 138.902 19.6777C138.368 19.7216 137.868 19.7633 137.298 19.8834L133.706 23.8886L135.225 25.4521C135.833 24.9992 136.602 24.5263 137.664 24.0419C139.817 23.0583 141.142 22.9495 142.311 22.8534C143.147 22.785 143.897 22.723 144.967 22.3561L141.841 19.1528Z" fill="white"/>
    <path id="Vector_15" d="M114.907 2.5249V4.54373L116.817 6.50856C118.082 5.84487 118.683 5.25344 119.361 4.58384C120 3.95333 120.704 3.25827 121.966 2.5249H114.907Z" fill="white"/>
  </g>
</svg>
