<?xml version="1.0" standalone="no"?>
<!DOCTYPE svg PUBLIC "-//W3C//DTD SVG 20010904//EN"
 "http://www.w3.org/TR/2001/REC-SVG-20010904/DTD/svg10.dtd">
<svg version="1.0" xmlns="http://www.w3.org/2000/svg"
 width="1514.000000pt" height="1514.000000pt" viewBox="0 0 1514.000000 1514.000000"
 preserveAspectRatio="xMidYMid meet">

<g transform="translate(0.000000,1514.000000) scale(0.100000,-0.100000)"
fill="#ffffff" stroke="none">
<path d="M3787 14123 c-960 -555 -1746 -1013 -1744 -1019 6 -30 2014 -3493
2024 -3491 30 6 3493 2013 3491 2023 -4 18 -2012 3494 -2018 3494 -3 0 -792
-453 -1753 -1007z"/>
<path d="M8587 13386 c-554 -959 -1007 -1748 -1007 -1752 0 -9 3472 -2017
3494 -2021 9 -2 2001 3436 2020 3487 5 11 -417 260 -1734 1020 -958 553 -1746
1006 -1753 1008 -8 2 -428 -716 -1020 -1742z"/>
<path d="M10 7575 l0 -2025 2025 0 2025 0 0 2025 0 2025 -2025 0 -2025 0 0
-2025z"/>
<path d="M11080 7575 l0 -2025 2025 0 2025 0 0 2025 0 2025 -2025 0 -2025 0 0
-2025z"/>
<path d="M3047 3796 c-554 -960 -1007 -1749 -1007 -1753 1 -7 3457 -2005 3490
-2017 11 -4 267 431 1020 1736 553 958 1006 1747 1008 1753 2 10 -3475 2025
-3495 2025 -5 0 -462 -785 -1016 -1744z"/>
<path d="M9328 4533 c-961 -555 -1747 -1013 -1745 -1020 6 -30 2013 -3493
2024 -3491 7 2 795 455 1753 1008 1315 759 1739 1009 1734 1020 -9 26 -2009
3489 -2014 3490 -3 0 -792 -453 -1752 -1007z"/>
</g>
</svg>
