<?xml version="1.0" standalone="no"?>
<!DOCTYPE svg PUBLIC "-//W3C//DTD SVG 20010904//EN"
 "http://www.w3.org/TR/2001/REC-SVG-20010904/DTD/svg10.dtd">
<svg version="1.0" xmlns="http://www.w3.org/2000/svg"
 width="600.000000pt" height="600.000000pt" viewBox="0 0 600.000000 600.000000"
 preserveAspectRatio="xMidYMid meet">

<g transform="translate(0.000000,600.000000) scale(0.100000,-0.100000)"
fill="#ffffff" stroke="none">
<path d="M668 3385 l-107 -113 19 -68 c11 -38 20 -71 20 -74 0 -2 -22 17 -48
43 l-49 48 -100 -108 -101 -108 107 -114 106 -113 73 19 c39 11 72 19 72 17 0
-2 -18 -20 -40 -41 -23 -20 -40 -42 -38 -48 2 -7 47 -59 101 -115 l99 -102 40
38 c22 22 71 74 109 116 l70 77 -16 59 c-21 84 -20 86 28 36 l42 -45 103 105
c87 88 102 107 93 123 -5 10 -54 62 -109 116 l-99 99 -74 -21 -73 -21 47 48
47 47 -101 108 c-55 59 -104 107 -107 106 -4 0 -55 -51 -114 -114z m196 -262
c-4 -16 -11 -38 -15 -51 -16 -43 -9 -66 33 -109 47 -48 46 -49 -32 -28 l-55
14 -47 -46 c-52 -51 -56 -47 -33 36 l14 53 -46 49 c-49 53 -45 57 31 34 56
-17 74 -10 117 44 30 38 41 39 33 4z"/>
<path d="M1578 3225 c-37 -20 -54 -76 -39 -125 12 -41 50 -79 149 -150 59 -43
82 -76 67 -99 -4 -7 -48 -11 -111 -11 l-104 0 0 -46 0 -46 136 4 136 3 29 33
c24 26 29 41 29 81 0 62 -22 90 -131 167 -134 94 -130 117 26 122 l105 4 0 39
0 39 -132 0 c-97 -1 -140 -5 -160 -15z"/>
<path d="M1920 3200 l0 -39 63 -3 62 -3 3 -202 2 -203 55 0 55 0 2 203 3 202
63 3 62 3 0 39 0 40 -185 0 -185 0 0 -40z"/>
<path d="M2387 3016 c-49 -123 -91 -233 -94 -245 -5 -21 -3 -22 52 -19 l57 3
17 45 17 45 99 0 99 0 17 -45 17 -45 61 -3 62 -3 -14 33 c-7 18 -51 129 -98
245 l-84 213 -60 0 -60 0 -88 -224z m182 18 c17 -47 31 -89 31 -95 0 -5 -29
-9 -65 -9 -36 0 -65 2 -65 5 0 9 62 185 65 185 2 0 17 -38 34 -86z"/>
<path d="M2820 2995 l0 -245 55 0 55 0 0 90 0 90 40 0 c54 0 73 -22 95 -109
l17 -71 54 0 c37 0 54 4 54 13 0 32 -40 152 -59 178 l-21 29 32 29 c31 27 33
34 33 94 0 51 -5 72 -21 94 -35 47 -58 53 -201 53 l-133 0 0 -245z m226 151
c22 -17 27 -97 7 -117 -7 -7 -37 -14 -68 -17 l-55 -4 0 76 0 76 48 0 c27 0 57
-6 68 -14z"/>
<path d="M3270 2995 l0 -245 55 0 54 0 3 126 3 127 93 -127 93 -126 66 0 c51
0 63 3 56 13 -103 130 -183 236 -183 242 0 4 38 56 85 116 47 60 85 111 85
114 0 3 -28 5 -62 5 l-63 -1 -85 -115 -85 -115 -3 115 -3 116 -54 0 -55 0 0
-245z"/>
<path d="M3772 3223 c3 -10 36 -121 74 -246 l68 -228 35 3 35 3 52 175 c29 96
55 184 59 195 6 19 25 -37 106 -307 19 -67 20 -68 54 -68 31 0 35 3 45 38 5
20 38 130 73 245 l64 207 -33 0 c-29 0 -34 -4 -42 -32 -67 -241 -106 -367
-112 -361 -4 4 -22 58 -39 118 -82 280 -79 275 -110 275 -28 0 -28 -2 -87
-200 -32 -110 -61 -200 -64 -200 -3 0 -30 89 -60 198 l-55 197 -34 3 c-29 3
-33 1 -29 -15z"/>
<path d="M4521 3027 c-47 -116 -91 -227 -98 -244 l-13 -33 34 0 c32 0 35 3 59
63 l25 62 113 3 114 3 23 -66 c23 -63 25 -65 59 -65 24 0 34 4 30 13 -3 6 -47
117 -98 245 l-93 232 -35 0 -36 0 -84 -213z m168 28 c22 -61 41 -114 41 -118
0 -4 -40 -7 -90 -7 -49 0 -90 2 -90 4 0 2 16 46 36 97 20 52 40 105 45 118 5
13 11 22 13 20 2 -2 22 -54 45 -114z"/>
<path d="M4932 2998 l3 -243 33 -3 32 -3 0 101 c0 117 1 118 88 104 48 -8 60
-14 78 -41 12 -18 27 -62 34 -98 12 -62 14 -65 41 -65 34 0 37 16 15 95 -17
64 -33 96 -59 117 l-21 16 26 13 c52 23 75 126 43 189 -26 50 -60 60 -195 60
l-120 0 2 -242z m208 189 c43 -15 62 -50 56 -101 -7 -62 -33 -80 -121 -84
l-75 -4 0 101 0 101 53 -1 c28 0 68 -5 87 -12z"/>
<path d="M5382 3033 c2 -147 7 -215 17 -231 21 -39 69 -52 191 -52 l110 0 0
25 c0 25 0 25 -99 25 -84 0 -102 3 -125 21 -24 19 -26 26 -26 94 l0 74 108 3
c102 3 107 4 110 26 3 22 2 22 -107 22 l-111 0 0 75 0 75 125 0 125 0 0 25 0
25 -161 0 -161 0 4 -207z"/>
</g>
</svg>
