<svg width="180" height="49" viewBox="0 0 180 49" fill="none" xmlns="http://www.w3.org/2000/svg">
<mask id="mask0_1191_136" style="mask-type:luminance" maskUnits="userSpaceOnUse" x="0" y="0" width="56" height="46">
<path d="M54.9312 0.966351L44.6065 11.2911C43.4441 12.4536 42.0248 13.2983 40.4806 13.7714C39.5447 14.0586 38.563 14.2073 37.5663 14.2073H18.3376C17.3409 14.2073 16.3592 14.0586 15.4232 13.7714C13.8791 13.2983 12.4597 12.4536 11.2974 11.2911C7.85423 7.84784 4.41429 4.40797 0.972745 0.964688C0.651761 0.643781 0.328964 0.321059 0.00798035 0C0.0807043 0.704561 0.185331 1.46151 0.335767 2.26057C0.619557 3.78958 1.06399 5.47577 1.75327 7.24639C2.03027 7.96108 2.33106 8.64538 2.64864 9.29922C3.45466 10.9583 4.37369 12.4282 5.33007 13.7224C7.13101 16.1604 9.57406 17.9851 12.333 19.0495C14.1476 19.7489 16.0974 20.1207 18.0911 20.1207H37.8128C39.8066 20.1207 41.7563 19.7489 43.5708 19.0495C46.3298 17.9851 48.7729 16.1604 50.5739 13.7224C51.5284 12.4298 52.4493 10.9583 53.2536 9.30088C53.5729 8.64704 53.8735 7.96108 54.1506 7.24639C54.84 5.47577 55.2843 3.78958 55.5682 2.26057C55.7186 1.46151 55.8233 0.704561 55.8961 0C55.5733 0.322723 55.2522 0.643781 54.9312 0.966351ZM2.15198 21.9275L8.94563 28.7227H19.6995L14.3235 34.0989L18.505 38.2804L28.0627 28.7227H46.7438L53.5409 21.9275C51.2313 19.6195 47.4872 19.6179 45.1776 21.9275L44.2974 22.8095H11.3955L10.5136 21.9275C9.35959 20.7736 7.84577 20.1956 6.33361 20.1956C4.81978 20.1956 3.30596 20.7736 2.15198 21.9275ZM29.5526 31.4108L20.502 40.2776L24.4015 44.1768C26.3037 46.0792 29.3879 46.0792 31.2902 44.1768L44.0562 31.4108H29.5526Z" fill="white"/>
</mask>
<g mask="url(#mask0_1191_136)">
<path d="M56.0016 0.0112305H-0.0976334V45.5918H56.0016V0.0112305Z" fill="white"/>
</g>
<path d="M106.272 21.6425H102.705C102.376 21.3139 102.189 20.8211 102.142 20.1405C101.273 21.3609 100.1 21.971 98.5745 21.971C96.0165 21.971 94.4676 20.4456 94.4676 18.2631C94.4676 16.0336 96.2746 14.8368 99.0204 14.3909L101.977 13.9215V13.7103C101.977 12.5839 101.367 12.0206 100.17 12.0206C99.1142 12.0206 98.3867 12.4196 98.3867 13.0767C98.3867 13.1471 98.3867 13.2175 98.4102 13.2879L95.2186 14.3674C95.1012 13.8981 95.0308 13.5226 95.0308 13.241C95.0308 12.1849 95.5237 11.3166 96.4858 10.6595C97.4715 10.0024 98.6918 9.67383 100.17 9.67383C103.714 9.67383 105.498 11.1523 105.498 14.0858V18.7559C105.498 19.9293 105.756 20.8915 106.272 21.6425ZM99.302 19.2488C100.1 19.2488 100.734 18.9671 101.226 18.4039C101.719 17.8172 101.977 17.1601 101.977 16.4091V16.1979L99.4897 16.6203C98.4337 16.7846 97.8939 17.254 97.8939 18.0284C97.8939 18.6855 98.4571 19.2488 99.302 19.2488Z" fill="white"/>
<path d="M93.8245 15.4939V16.6908H85.2117C85.3995 18.0988 86.5729 18.9671 88.0044 18.9671C89.2482 18.9671 90.2339 18.357 90.9614 17.1366L93.4959 18.5682C92.3929 20.8446 90.5155 21.971 87.8636 21.971C86.2443 21.971 84.8363 21.3843 83.6394 20.2344C82.466 19.0845 81.8793 17.606 81.8793 15.8224C81.8793 14.0154 82.466 12.5369 83.6394 11.387C84.8128 10.2371 86.2913 9.67383 88.0983 9.67383C89.8115 9.67383 91.1726 10.2371 92.2287 11.3635C93.2847 12.4665 93.8245 13.8511 93.8245 15.4939ZM88.0279 12.3961C86.7372 12.3961 85.728 13.0767 85.3525 14.2266H90.6563C90.3747 13.0767 89.3656 12.3961 88.0279 12.3961Z" fill="white"/>
<path d="M75.609 12.7244H73.9193V10.0021H75.609V6.85742H79.1292V10.0021H81.5464V12.7244H79.1292V17.3241C79.1292 18.2629 79.5986 18.8261 80.42 18.8261C80.8189 18.8261 81.1944 18.7557 81.5229 18.6383L81.8515 21.5718C81.1475 21.83 80.373 21.9708 79.5047 21.9708C78.4017 21.9708 77.4865 21.6657 76.7355 21.0321C75.9845 20.3984 75.609 19.4128 75.609 18.0282V12.7244Z" fill="white"/>
<path d="M68.5704 11.6919C72.2079 12.4664 73.8272 13.9683 73.8272 16.6906C73.8272 18.1926 73.2874 19.4598 72.1844 20.469C71.0814 21.4781 69.5795 21.9709 67.6551 21.9709C63.8064 21.9709 61.4126 20.1873 60.4504 16.6437L63.6656 15.0948C64.2522 17.4416 65.4256 18.6385 67.6551 18.6385C69.1336 18.6385 70.0958 17.9109 70.0958 16.9488C70.0958 15.7284 68.9458 15.0009 66.4113 14.5316C62.9615 13.851 61.2484 12.2082 61.2484 9.60329C61.2484 8.17175 61.7881 7.04528 62.8676 6.17697C63.9472 5.30865 65.3787 4.88623 67.1623 4.88623C70.3774 4.88623 72.3956 6.27084 73.5456 9.18087L70.7059 10.8706C70.0488 8.94619 68.852 7.984 67.0919 7.984C65.6838 7.984 64.6747 8.61764 64.6747 9.55636C64.6747 10.4716 65.7307 11.1052 68.5704 11.6919Z" fill="white"/>
<path d="M180.008 15.4939V16.6908H171.395C171.583 18.0988 172.756 18.9671 174.188 18.9671C175.432 18.9671 176.417 18.357 177.145 17.1366L179.679 18.5682C178.576 20.8446 176.699 21.971 174.047 21.971C172.428 21.971 171.02 21.3843 169.823 20.2344C168.65 19.0845 168.063 17.606 168.063 15.8224C168.063 14.0154 168.65 12.5369 169.823 11.387C170.996 10.2371 172.475 9.67383 174.282 9.67383C175.995 9.67383 177.356 10.2371 178.412 11.3635C179.468 12.4665 180.008 13.8511 180.008 15.4939ZM174.211 12.3961C172.921 12.3961 171.912 13.0767 171.536 14.2266H176.84C176.558 13.0767 175.549 12.3961 174.211 12.3961Z" fill="white"/>
<path d="M161.164 12.9593C161.164 13.546 161.986 13.8981 163.652 14.2735C166.445 14.8602 167.618 15.9632 167.618 18.005C167.618 19.1549 167.172 20.0936 166.28 20.8446C165.412 21.5956 164.262 21.971 162.854 21.971C160.202 21.971 158.325 20.7507 157.269 18.3335L159.968 16.6673C160.601 18.2866 161.587 19.108 162.901 19.108C163.816 19.108 164.379 18.7559 164.379 18.1927C164.379 17.5121 163.746 17.1601 162.15 16.855C159.733 16.3857 158.067 15.1184 158.067 13.1236C158.067 12.0676 158.489 11.2227 159.334 10.6125C160.202 9.97891 161.235 9.67383 162.479 9.67383C165.037 9.67383 166.398 10.5891 167.454 12.6543L164.919 14.1327C164.52 12.842 163.582 12.1614 162.526 12.1614C161.61 12.1614 161.164 12.4196 161.164 12.9593Z" fill="white"/>
<path d="M145.039 17.0428V10.0024H148.559V16.2684C148.559 17.7703 149.31 18.6387 150.624 18.6387C152.15 18.6387 152.971 17.3949 152.971 15.6113V10.0024H156.491V21.6426H152.971V19.9529C152.197 21.2436 151.235 21.9711 149.357 21.9711C148.113 21.9711 147.081 21.5252 146.259 20.6569C145.438 19.7651 145.039 18.5682 145.039 17.0428Z" fill="white"/>
<path d="M142.21 11.3166C143.477 12.3726 144.111 13.8746 144.111 15.8224C144.111 17.7703 143.477 19.2722 142.21 20.3518C140.942 21.4313 139.417 21.971 137.633 21.971C135.873 21.971 134.348 21.4313 133.081 20.3518C131.837 19.2722 131.203 17.7703 131.203 15.8224C131.203 13.8746 131.837 12.3726 133.081 11.2931C134.348 10.2136 135.873 9.67383 137.633 9.67383C139.417 9.67383 140.942 10.2136 142.21 11.3166ZM135.615 17.8876C136.178 18.3804 136.859 18.6386 137.633 18.6386C138.431 18.6386 139.112 18.3804 139.675 17.8876C140.262 17.3713 140.544 16.6907 140.544 15.8224C140.544 14.9541 140.262 14.2736 139.675 13.7807C139.112 13.2644 138.431 13.0063 137.633 13.0063C136.859 13.0063 136.178 13.2644 135.615 13.7807C135.052 14.2736 134.77 14.9541 134.77 15.8224C134.77 16.6907 135.052 17.3713 135.615 17.8876Z" fill="white"/>
<path d="M130.229 13.7102V21.6424H126.709V15.4234C126.709 13.9449 125.934 13.0062 124.526 13.0062C123.095 13.0062 122.015 14.2265 122.015 16.0336V21.6424H118.495V5.21484H122.015V11.6216C123.024 10.3309 124.362 9.67376 126.005 9.67376C128.563 9.67376 130.229 11.2461 130.229 13.7102Z" fill="white"/>
<path d="M72.7405 36.7161H64.8313V43.0854H61.0517V26.7538H73.4171V30.0668H64.8313V33.4965H72.7405V36.7161ZM78.2877 43.0854H74.7881V31.5133H78.2877V43.0854ZM78.4277 30.1601H74.6481V26.4272H78.4277V30.1601ZM91.3252 35.1996V43.0854H87.8256V36.7861C87.8256 35.4096 87.149 34.4997 85.7725 34.4997C84.3726 34.4997 83.4394 35.6662 83.4394 37.5094V43.0854H79.9397V31.5133H83.4394V33.1698C84.3959 31.84 85.6325 31.1867 87.1957 31.1867C89.7854 31.1867 91.3252 32.7965 91.3252 35.1996ZM104.04 43.0854H100.493C100.167 42.7588 99.98 42.2689 99.9333 41.5923C99.0701 42.8055 97.9035 43.4121 96.387 43.4121C93.844 43.4121 92.3041 41.8956 92.3041 39.7258C92.3041 37.5094 94.1006 36.3195 96.8303 35.8762L99.77 35.4096V35.1996C99.77 34.0797 99.1634 33.5198 97.9735 33.5198C96.9236 33.5198 96.2004 33.9164 96.2004 34.5697C96.2004 34.6397 96.2004 34.7097 96.2237 34.7797L93.0507 35.8529C92.9341 35.3863 92.8641 35.013 92.8641 34.733C92.8641 33.6831 93.354 32.8199 94.3106 32.1666C95.2905 31.5133 96.5037 31.1867 97.9735 31.1867C101.496 31.1867 103.27 32.6565 103.27 35.5729V40.2158C103.27 41.3823 103.526 42.3389 104.04 43.0854ZM97.1103 40.7057C97.9035 40.7057 98.5335 40.4257 99.0234 39.8658C99.5134 39.2825 99.77 38.6293 99.77 37.8827V37.6727L97.2969 38.0926C96.247 38.256 95.7104 38.7226 95.7104 39.4925C95.7104 40.1458 96.2704 40.7057 97.1103 40.7057ZM116.256 35.1996V43.0854H112.756V36.7861C112.756 35.4096 112.08 34.4997 110.703 34.4997C109.303 34.4997 108.37 35.6662 108.37 37.5094V43.0854H104.87V31.5133H108.37V33.1698C109.327 31.84 110.563 31.1867 112.126 31.1867C114.716 31.1867 116.256 32.7965 116.256 35.1996ZM126.05 38.186L128.943 40.0524C127.823 42.2922 125.98 43.4121 123.414 43.4121C121.641 43.4121 120.171 42.8521 118.981 41.7323C117.814 40.589 117.231 39.1192 117.231 37.2994C117.231 35.5029 117.838 34.0564 119.051 32.9132C120.264 31.77 121.711 31.1867 123.414 31.1867C125.957 31.1867 127.753 32.2366 128.803 34.3364L125.98 36.2262C125.397 35.013 124.557 34.4064 123.414 34.4064C121.851 34.4064 120.777 35.5262 120.777 37.2994C120.777 39.0959 121.804 40.1924 123.39 40.1924C124.557 40.1924 125.443 39.5158 126.05 38.186ZM133.438 43.0854H129.938V31.5133H133.438V43.0854ZM133.578 30.1601H129.798V26.4272H133.578V30.1601ZM146.223 43.0854H142.676C142.35 42.7588 142.163 42.2689 142.117 41.5923C141.253 42.8055 140.087 43.4121 138.57 43.4121C136.027 43.4121 134.487 41.8956 134.487 39.7258C134.487 37.5094 136.284 36.3195 139.014 35.8762L141.953 35.4096V35.1996C141.953 34.0797 141.347 33.5198 140.157 33.5198C139.107 33.5198 138.384 33.9164 138.384 34.5697C138.384 34.6397 138.384 34.7097 138.407 34.7797L135.234 35.8529C135.117 35.3863 135.047 35.013 135.047 34.733C135.047 33.6831 135.537 32.8199 136.494 32.1666C137.474 31.5133 138.687 31.1867 140.157 31.1867C143.68 31.1867 145.453 32.6565 145.453 35.5729V40.2158C145.453 41.3823 145.709 42.3389 146.223 43.0854ZM139.294 40.7057C140.087 40.7057 140.717 40.4257 141.207 39.8658C141.697 39.2825 141.953 38.6293 141.953 37.8827V37.6727L139.48 38.0926C138.43 38.256 137.894 38.7226 137.894 39.4925C137.894 40.1458 138.454 40.7057 139.294 40.7057ZM150.576 43.0854H147.076V26.7538H150.576V43.0854Z" fill="white"/>
<path d="M110.65 13.0771L113.749 10.0029H116.867V11.1982L113.89 14.1094L116.867 18.749V21.6426H114.57L111.355 16.5967L110.65 17.3008V21.6426H107.131V5.21484H110.65V13.0771ZM118.724 21.6426H118.495V21.2861L118.724 21.6426Z" fill="white"/>
</svg>
