<svg width="147" height="40" viewBox="0 0 147 40" fill="none" xmlns="http://www.w3.org/2000/svg">
<g clip-path="url(#clip0_311_47)">
<path d="M137.924 6.41931C136.471 6.41931 135.253 6.6536 134.269 7.13778C133.285 7.62197 132.442 8.29358 131.739 9.137L131.239 6.63798H126.444V26.6614H131.942V16.4154C131.942 14.6817 132.332 13.3229 133.113 12.3701C133.894 11.4174 135.003 10.9332 136.424 10.9332C139.126 10.9332 140.47 12.6669 140.47 16.1186V26.677H145.968V15.8063C145.968 12.4638 145.218 10.0585 143.703 8.60596C142.188 7.1534 140.251 6.41931 137.924 6.41931ZM123.367 6.6536C121.883 6.6536 120.712 6.9035 119.822 7.41892C118.931 7.91873 118.197 8.66843 117.604 9.65242L117.104 6.6536H112.121V26.677H117.619V16.8684C117.619 15.2596 117.978 13.9789 118.713 13.0573C119.447 12.1202 120.587 11.6516 122.133 11.6516H124.32V6.6536H123.367ZM99.5013 22.9441C98.5954 22.9441 97.8769 22.7411 97.3459 22.3193C96.8149 21.8976 96.5493 21.351 96.5493 20.6481C96.5493 19.8203 96.8617 19.18 97.5021 18.727C98.1425 18.2741 99.0327 18.0398 100.173 18.0398H104.187V18.4302C104.156 19.8047 103.734 20.898 102.906 21.7258C102.063 22.538 100.938 22.9441 99.5013 22.9441ZM100.72 6.41931C98.0175 6.41931 95.8465 6.98159 94.2221 8.10615C92.5821 9.23071 91.6762 10.8238 91.4888 12.8699H96.7836C96.9086 12.1202 97.3147 11.5267 97.9707 11.0737C98.6267 10.6364 99.4857 10.4177 100.517 10.4177C101.625 10.4177 102.516 10.6833 103.187 11.1987C103.843 11.7141 104.187 12.4326 104.187 13.3385V14.3693H100.251C97.2366 14.3693 94.9406 14.9472 93.3787 16.0874C91.8012 17.2276 91.0203 18.8676 91.0203 20.9917C91.0203 22.866 91.6762 24.3186 92.9882 25.3494C94.3002 26.3959 96.0652 26.9113 98.2674 26.9113C99.6106 26.9113 100.782 26.677 101.75 26.2085C102.719 25.7399 103.593 25.0527 104.343 24.1468L104.765 26.677H109.591V13.6665C109.591 11.308 108.826 9.51185 107.28 8.27796C105.733 7.04407 103.547 6.41931 100.72 6.41931ZM74.6985 14.3381C74.8547 13.1667 75.3389 12.2452 76.1667 11.5579C76.9789 10.8707 77.9941 10.5271 79.1811 10.5271C80.4306 10.5271 81.4615 10.8551 82.2737 11.5267C83.0858 12.1827 83.5857 13.1354 83.7731 14.3537H74.6985V14.3381ZM68.857 16.7122C68.857 18.7582 69.2944 20.5544 70.169 22.1007C71.0437 23.647 72.2776 24.834 73.9019 25.6618C75.5263 26.4896 77.4474 26.9113 79.6809 26.9113C81.399 26.9113 82.914 26.5989 84.2416 25.9898C85.5693 25.3807 86.6313 24.5372 87.4279 23.4751C88.2401 22.4131 88.7399 21.2104 88.9429 19.8984H83.5232C83.2889 20.8356 82.8047 21.5384 82.055 22.0226C81.3209 22.5068 80.3838 22.7411 79.2748 22.7411C77.8691 22.7411 76.7758 22.3194 75.9636 21.4915C75.1515 20.6637 74.6985 19.5236 74.5579 18.071V17.9148H89.0835C89.1928 17.3682 89.2397 16.7434 89.2397 16.0406C89.2085 14.0882 88.7711 12.4013 87.8965 10.9644C87.0218 9.52747 85.8192 8.40291 84.2729 7.62197C82.7266 6.8254 80.9461 6.43493 78.9156 6.43493C76.9164 6.43493 75.1515 6.85664 73.6364 7.70006C72.1214 8.54348 70.9343 9.74614 70.0909 11.2768C69.2787 12.8231 68.857 14.6349 68.857 16.7122ZM47.8652 6.6536L55.581 26.7864L55.0812 28.114C54.8 28.7856 54.5033 29.2385 54.1909 29.4728C53.8785 29.7071 53.3787 29.8164 52.6759 29.8164H49.6302V34.4552H54.9718C55.9871 34.4552 56.8149 34.2834 57.4396 33.9242C58.08 33.5806 58.5954 33.0495 59.0171 32.3623C59.4388 31.6751 59.8762 30.7223 60.3447 29.504L69.2319 6.63798H63.3436L58.5954 21.0074L53.7223 6.63798H47.8652V6.6536Z" fill="white"/>
<path d="M32.5122 15.3846L27.4517 20.4452C27.7328 21.3667 27.8734 22.3507 27.8734 23.3347C27.8734 26.0055 26.8269 28.5201 24.9526 30.41C23.0628 32.2999 20.5481 33.3308 17.8773 33.3308C15.2064 33.3308 12.6918 32.2843 10.8019 30.41C8.91203 28.5201 7.88118 26.0055 7.88118 23.3347C7.88118 22.3351 8.02175 21.3667 8.30289 20.4452L3.22675 15.3846C1.946 17.7431 1.21191 20.4608 1.21191 23.3503C1.21191 32.5498 8.67775 40.0156 17.8773 40.0156C27.0768 40.0156 34.5426 32.5498 34.5426 23.3503C34.5426 20.4608 33.8086 17.7431 32.5122 15.3846Z" fill="white"/>
<path d="M14.5346 26.6615H21.2039V16.0718L32.5588 4.71691L27.8419 0L17.8771 9.96486L7.91222 0L3.19531 4.71691L14.5346 16.0562V26.6615Z" fill="white"/>
</g>
<defs>
<clipPath id="clip0_311_47">
<rect width="145.209" height="40" fill="white" transform="translate(0.977539)"/>
</clipPath>
</defs>
</svg>
