<svg width="100" height="24" viewBox="0 0 100 24" fill="none" xmlns="http://www.w3.org/2000/svg">
<path d="M21.614 4.8407C21.3275 4.45843 20.771 4.4411 20.4333 4.77878L16.6817 8.52958C16.3961 8.81524 16.3663 9.26355 16.5546 9.62105C17.3381 11.108 17.3381 12.8922 16.5546 14.3799C16.3663 14.7374 16.3961 15.1849 16.6817 15.4706L20.4333 19.2214C20.771 19.5599 21.3275 19.5417 21.614 19.1595C24.7943 14.9232 24.7943 9.07696 21.614 4.8407Z" fill="white"/>
<path d="M4.84082 2.38522C4.45856 2.67254 4.44122 3.22818 4.7789 3.56669L8.5297 7.31748C8.81536 7.60315 9.26368 7.63287 9.62117 7.44463C11.1081 6.66112 12.8923 6.66112 14.3801 7.44463C14.7375 7.63287 15.185 7.60315 15.4707 7.31748L19.2215 3.56669C19.56 3.22818 19.5418 2.67254 19.1596 2.38522C14.9233 -0.795074 9.07709 -0.795074 4.84082 2.38522Z" fill="white"/>
<path d="M15.4707 16.6826C15.185 16.3969 14.7375 16.3672 14.3801 16.5554C12.8923 17.3389 11.1081 17.3389 9.62117 16.5554C9.26368 16.3672 8.81536 16.3969 8.5297 16.6826L4.7789 20.4334C4.44122 20.7711 4.45856 21.3275 4.84082 21.6148C9.07709 24.7951 14.9233 24.7951 19.1596 21.6148C19.5418 21.3275 19.56 20.7711 19.2215 20.4334L15.4707 16.6826Z" fill="white"/>
<path d="M7.44463 9.62105C7.63287 9.26355 7.60315 8.81524 7.31748 8.52958L3.56669 4.77878C3.22818 4.4411 2.67254 4.45843 2.38522 4.8407C-0.795074 9.07696 -0.795074 14.9232 2.38522 19.1595C2.67254 19.5417 3.22818 19.5599 3.56669 19.2214L7.31748 15.4706C7.60315 15.1849 7.63287 14.7374 7.44463 14.3799C6.66112 12.8922 6.66112 11.108 7.44463 9.62105Z" fill="white"/>
<path d="M31.5 17.0747H35.1418C38.4971 17.0747 40.7338 15.1378 40.7338 12.2193C40.7338 9.30068 38.4971 7.36377 35.1418 7.36377H31.5V17.0747ZM33.7102 15.3013V9.13638H35.1418C37.1332 9.13638 38.4831 10.3368 38.4831 12.2193C38.4831 14.1149 37.1332 15.3013 35.1418 15.3013H33.7102Z" fill="white"/>
<path d="M45.1684 17.2927C46.8592 17.2927 48.2091 16.529 48.6459 15.274L46.9278 14.8381C46.6272 15.4103 46.027 15.7925 45.2501 15.7925C44.2544 15.7925 43.5584 15.1519 43.3949 14.1694H48.8779C48.9051 14.0191 48.9051 13.7334 48.9051 13.5559C48.9051 11.3598 47.3777 9.87366 45.1543 9.87366C42.9037 9.87366 41.3086 11.3466 41.3086 13.5287C41.3086 15.7785 42.9037 17.2927 45.1684 17.2927ZM43.3817 12.9144C43.5452 11.9872 44.1859 11.3738 45.0998 11.3738C46.0411 11.3738 46.723 12.0285 46.8452 12.9144H43.3817Z" fill="white"/>
<path d="M49.9395 17.0747H52.2173V13.215H56.3091V11.4415H52.2173V9.30068H56.8953V7.36377H49.9395V17.0747Z" fill="white"/>
<path d="M58.7164 9.1232C59.4256 9.1232 59.9301 8.63196 59.9301 7.93678C59.9301 7.25482 59.4256 6.75037 58.7164 6.75037C58.0072 6.75037 57.502 7.25482 57.502 7.93678C57.502 8.63196 58.0072 9.1232 58.7164 9.1232ZM57.7067 17.0748H59.7253V10.0917H57.7067V17.0748Z" fill="white"/>
<path d="M68.0094 17.4156C70.369 17.4156 71.747 16.2836 71.747 14.483C71.747 12.3008 69.7688 11.9186 68.0234 11.6321C66.605 11.4141 65.3228 11.1821 65.3228 9.91396C65.3228 8.87781 66.1683 8.20905 67.7229 8.20905C69.3733 8.20905 70.3286 9.01404 70.3286 10.378H71.5282C71.515 8.34528 70.0825 7.11841 67.7229 7.11841C65.4046 7.11841 64.0819 8.25034 64.0819 9.98249C64.0819 12.0688 65.9907 12.5188 67.7229 12.7921C69.1686 13.0233 70.5052 13.242 70.5052 14.5647C70.5052 15.6421 69.5913 16.3241 68.0234 16.3241C66.2227 16.3241 65.1725 15.4374 65.1593 13.9513H63.9316C63.9316 16.0921 65.4863 17.4156 68.0094 17.4156Z" fill="white"/>
<path d="M75.0838 17.2928C76.1885 17.2928 76.9935 16.856 77.4839 16.0651H77.6069V17.0748H78.7389V12.5058C78.7389 10.9371 77.6069 9.92822 75.8203 9.92822C74.0881 9.92822 72.9562 10.8554 72.9562 12.3143H74.1014C74.0881 11.4556 74.7701 10.9512 75.8063 10.9512C76.939 10.9512 77.6069 11.5506 77.6069 12.4786V12.751L75.6973 12.983C73.6514 13.215 72.6152 14.115 72.6152 15.3286C72.6152 16.515 73.5969 17.2928 75.0838 17.2928ZM75.2473 16.3516C74.3201 16.3516 73.7472 15.9561 73.7472 15.3014C73.7472 14.6607 74.2929 14.115 75.6973 13.9374L77.6069 13.7195V14.3329C77.6069 15.4929 76.6525 16.3516 75.2473 16.3516Z" fill="white"/>
<path d="M82.0075 17.0746H83.6167L86.2356 10.1864H85.0764L82.8662 16.1738H82.744L80.5478 10.1864H79.3887L82.0075 17.0746Z" fill="white"/>
<path d="M90.2681 17.3471C91.7955 17.3471 93.0364 16.6379 93.5962 15.4647L92.655 14.9875C92.2182 15.8057 91.3183 16.3242 90.2954 16.3242C88.8902 16.3242 87.8812 15.397 87.7178 14.0058H93.8142C93.8274 13.8556 93.8274 13.6921 93.8274 13.5559C93.8274 11.4415 92.314 9.91406 90.2136 9.91406C88.086 9.91406 86.5586 11.4415 86.5586 13.5418C86.5586 15.7512 88.1132 17.3471 90.2681 17.3471ZM87.731 13.0101C87.9225 11.7692 88.8901 10.937 90.1591 10.937C91.4686 10.937 92.4362 11.7692 92.641 13.0101H87.731Z" fill="white"/>
<path d="M95.1602 17.0748H96.2929V13.3645C96.2929 12.0014 97.0153 11.0734 98.0523 11.0734C98.3107 11.0734 98.7202 11.1279 99.0744 11.2781V10.2279C98.8705 10.1189 98.5427 10.0504 98.229 10.0504C97.4653 10.0504 96.7016 10.4872 96.3879 11.1146H96.2648V10.1866H95.1602V17.0748Z" fill="white"/>
</svg>
