<?xml version="1.0" encoding="utf-8"?>
<!-- Generator: Adobe Illustrator 27.9.4, SVG Export Plug-In . SVG Version: 9.03 Build 54784)  -->
<svg version="1.1" id="Layer_1" xmlns="http://www.w3.org/2000/svg" xmlns:xlink="http://www.w3.org/1999/xlink" x="0px" y="0px"
	 viewBox="0 0 24 24" style="enable-background:new 0 0 24 24;" xml:space="preserve">
<style type="text/css">
	.st0{fill:#0D1822;}
</style>
<path class="st0" d="M23.77,11.74c-0.01-0.28-0.03-0.7-0.07-1.11c-0.11-1.18-0.41-2.32-0.88-3.41c-0.65-1.49-1.58-2.77-2.8-3.85
	c-1.09-0.96-2.32-1.69-3.68-2.2c-1.18-0.44-2.41-0.68-3.67-0.73C11.53,0.4,10.4,0.46,9.28,0.7C8.23,0.93,7.22,1.29,6.26,1.79
	C4.57,2.67,3.2,3.91,2.14,5.49C1.43,6.55,0.91,7.7,0.59,8.93c-0.32,1.24-0.42,2.5-0.34,3.77c0.06,1.04,0.24,2.06,0.57,3.04
	c0.48,1.43,1.22,2.72,2.22,3.86c0.96,1.09,2.08,1.96,3.36,2.62c1.3,0.67,2.67,1.09,4.13,1.25c1.27,0.14,2.53,0.12,3.78-0.1
	c1.23-0.22,2.39-0.62,3.49-1.22c1.66-0.9,3.02-2.13,4.06-3.7c0.74-1.11,1.27-2.32,1.58-3.62C23.69,13.86,23.78,12.87,23.77,11.74z
	 M18.21,14.82c-0.16,0.44-0.37,0.87-0.62,1.27c-0.02,0.04-0.05,0.07-0.08,0.11c-0.19-0.29-0.38-0.57-0.56-0.86
	c-0.56-0.86-1.12-1.72-1.69-2.58c-0.67-1.03-1.35-2.06-2.02-3.09c-0.39-0.6-0.79-1.19-1.17-1.79C12,7.8,11.98,7.83,11.94,7.89
	c-0.83,1.27-1.67,2.54-2.5,3.81c-0.96,1.46-1.92,2.92-2.88,4.38c-0.06,0.09-0.09,0.07-0.14-0.01c-0.46-0.77-0.77-1.6-0.93-2.49
	c-0.13-0.73-0.16-1.46-0.12-2.2c0.07-1.25,0.37-2.44,1.05-3.51c0.7-1.12,1.66-1.93,2.9-2.41c1.63-0.63,3.3-0.66,4.96-0.15
	c1.35,0.41,2.43,1.22,3.22,2.4c0.58,0.88,0.94,1.84,1.08,2.88C18.78,12.05,18.69,13.45,18.21,14.82z"/>
</svg>
