<svg width="2566" height="2566" viewBox="0 0 2566 2566" fill="none" xmlns="http://www.w3.org/2000/svg">
<path fill-rule="evenodd" clip-rule="evenodd" d="M1283.34 2426.44C1914.83 2426.44 2426.76 1914.51 2426.76 1283.02C2426.76 651.53 1914.83 139.605 1283.34 139.605C651.85 139.605 139.925 651.53 139.925 1283.02C139.925 1914.51 651.85 2426.44 1283.34 2426.44ZM1283.34 2565.5C1991.64 2565.5 2565.82 1991.31 2565.82 1283.02C2565.82 574.727 1991.64 0.540894 1283.34 0.540894C575.047 0.540894 0.861328 574.727 0.861328 1283.02C0.861328 1991.31 575.047 2565.5 1283.34 2565.5Z" fill="#282828"/>
<path d="M463.684 2002.86C663.56 2229.59 956.17 2372.62 1282.19 2372.62C1608.2 2372.62 1900.81 2229.59 2100.69 2002.86L2003.11 1864.89C1833.13 2074.81 1573.33 2209.01 1282.19 2209.01C991.04 2209.01 731.237 2074.81 561.262 1864.89L463.684 2002.86Z" fill="#282828"/>
<path d="M1282.19 354.724C1794.23 354.724 2209.33 769.819 2209.33 1281.87C2209.33 1502.77 2132.07 1705.62 2003.11 1864.89L2100.69 2002.86C2270.14 1810.64 2372.94 1558.26 2372.94 1281.87C2372.94 679.458 1884.59 191.11 1282.19 191.11C679.778 191.11 191.431 679.458 191.431 1281.87C191.431 1558.26 294.232 1810.64 463.684 2002.86L561.262 1864.89C432.298 1705.62 355.044 1502.77 355.044 1281.87C355.044 769.819 770.14 354.724 1282.19 354.724Z" fill="#282828"/>
<path d="M1918.62 1745.44H645.747L561.262 1864.89C731.237 2074.81 991.04 2209.01 1282.19 2209.01C1573.33 2209.01 1833.13 2074.81 2003.11 1864.89L1918.62 1745.44Z" fill="#282828"/>
<path d="M1860.77 1663.63L1706.48 1445.48H857.893L703.605 1663.63H1860.77Z" fill="#282828"/>
<path d="M1648.62 1363.67L1494.33 1145.52H1070.04L915.751 1363.67H1648.62Z" fill="#282828"/>
<path d="M1436.47 1063.71L1282.19 845.563L1127.9 1063.71H1436.47Z" fill="#282828"/>
</svg>
