<svg width="390" height="3001" viewBox="0 0 390 3001" fill="none" xmlns="http://www.w3.org/2000/svg">
<g clip-path="url(#clip0_133_288)">
<rect width="390" height="3001" fill="white"/>
<rect width="390" height="3001" fill="#111111"/>
<g filter="url(#filter0_f_133_288)">
<circle cx="-17" cy="2043" r="203" fill="#FF6B35"/>
</g>
<g filter="url(#filter1_f_133_288)">
<circle cx="-128.5" cy="1542.5" r="187.5" fill="#266DD3"/>
</g>
<g filter="url(#filter2_f_133_288)">
<ellipse cx="-48.5" cy="98" rx="241.5" ry="216" fill="#FF6B35"/>
</g>
<g filter="url(#filter3_f_133_288)">
<path d="M-337.5 391C-337.5 250.303 -281.608 115.368 -182.12 15.8799C-82.6321 -83.6081 52.3026 -139.5 193 -139.5C333.697 -139.5 468.632 -83.6081 568.12 15.8799C667.608 115.368 723.5 250.303 723.5 391" stroke="white"/>
</g>
<line x1="-4.37114e-08" y1="2746.5" x2="390" y2="2746.5" stroke="#2F2F2F"/>
<g filter="url(#filter4_b_133_288)">
<mask id="path-6-inside-1_133_288" fill="white">
<path d="M0 47H390V103H0V47Z"/>
</mask>
<path d="M0 47H390V103H0V47Z" fill="#121212" fill-opacity="0.4"/>
<path d="M390 102H0V104H390V102Z" fill="white" fill-opacity="0.2" mask="url(#path-6-inside-1_133_288)"/>
</g>
</g>
<defs>
<filter id="filter0_f_133_288" x="-794" y="1266" width="1554" height="1554" filterUnits="userSpaceOnUse" color-interpolation-filters="sRGB">
<feFlood flood-opacity="0" result="BackgroundImageFix"/>
<feBlend mode="normal" in="SourceGraphic" in2="BackgroundImageFix" result="shape"/>
<feGaussianBlur stdDeviation="287" result="effect1_foregroundBlur_133_288"/>
</filter>
<filter id="filter1_f_133_288" x="-530" y="1141" width="803" height="803" filterUnits="userSpaceOnUse" color-interpolation-filters="sRGB">
<feFlood flood-opacity="0" result="BackgroundImageFix"/>
<feBlend mode="normal" in="SourceGraphic" in2="BackgroundImageFix" result="shape"/>
<feGaussianBlur stdDeviation="107" result="effect1_foregroundBlur_133_288"/>
</filter>
<filter id="filter2_f_133_288" x="-724" y="-552" width="1351" height="1300" filterUnits="userSpaceOnUse" color-interpolation-filters="sRGB">
<feFlood flood-opacity="0" result="BackgroundImageFix"/>
<feBlend mode="normal" in="SourceGraphic" in2="BackgroundImageFix" result="shape"/>
<feGaussianBlur stdDeviation="217" result="effect1_foregroundBlur_133_288"/>
</filter>
<filter id="filter3_f_133_288" x="-340" y="-142" width="1066" height="535" filterUnits="userSpaceOnUse" color-interpolation-filters="sRGB">
<feFlood flood-opacity="0" result="BackgroundImageFix"/>
<feBlend mode="normal" in="SourceGraphic" in2="BackgroundImageFix" result="shape"/>
<feGaussianBlur stdDeviation="1" result="effect1_foregroundBlur_133_288"/>
</filter>
<filter id="filter4_b_133_288" x="-40" y="7" width="470" height="136" filterUnits="userSpaceOnUse" color-interpolation-filters="sRGB">
<feFlood flood-opacity="0" result="BackgroundImageFix"/>
<feGaussianBlur in="BackgroundImageFix" stdDeviation="20"/>
<feComposite in2="SourceAlpha" operator="in" result="effect1_backgroundBlur_133_288"/>
<feBlend mode="normal" in="SourceGraphic" in2="effect1_backgroundBlur_133_288" result="shape"/>
</filter>
<clipPath id="clip0_133_288">
<rect width="390" height="3001" fill="white"/>
</clipPath>
</defs>
</svg>
