<svg width="114" height="32" viewBox="0 0 114 32" fill="none" xmlns="http://www.w3.org/2000/svg">
<g clip-path="url(#clip0_160_9090)">
<path d="M2.64391 31.8993L2.63976 31.1558L4.54373 31.1452C4.90639 31.1432 5.18989 31.0358 5.39421 30.8231C5.59851 30.6044 5.69981 30.3439 5.69813 30.0417C5.69698 29.8361 5.65062 29.652 5.55904 29.4894C5.46743 29.3206 5.33372 29.1884 5.15789 29.0927C4.98811 28.9969 4.78838 28.9496 4.55869 28.9509L2.62752 28.9617L2.62337 28.2182L4.42761 28.2082C4.72983 28.2065 4.96814 28.1266 5.14255 27.9685C5.32297 27.8042 5.41234 27.571 5.41065 27.2688C5.40897 26.9666 5.314 26.7374 5.12575 26.5813C4.93746 26.4192 4.68919 26.339 4.38093 26.3407L2.61295 26.3505L2.60881 25.6071L4.39491 25.5971C4.80593 25.5948 5.14786 25.6685 5.42069 25.8181C5.69954 25.9616 5.90915 26.1538 6.04952 26.3948C6.19593 26.6358 6.26995 26.9014 6.27157 27.1915C6.27346 27.53 6.18142 27.8267 5.99546 28.0816C5.81555 28.3364 5.54769 28.5374 5.19188 28.6845L5.2629 28.4121C5.66868 28.5549 5.98421 28.7737 6.20951 29.0687C6.44081 29.3575 6.55757 29.7014 6.5598 30.1003C6.56165 30.4328 6.48172 30.7324 6.32001 30.9993C6.1583 31.2661 5.92376 31.482 5.61641 31.6469C5.31507 31.8058 4.94378 31.8864 4.50255 31.8889L2.64391 31.8993ZM2.07272 31.9024L2.03762 25.6103L2.88987 25.6055L2.92497 31.8977L2.07272 31.9024Z" fill="white"/>
<path d="M8.35624 31.8674L8.32114 25.5752L9.1734 25.5705L9.2085 31.8626L8.35624 31.8674ZM8.9365 31.8642L8.93215 31.0844L12.3049 31.0656L12.3092 31.8453L8.9365 31.8642Z" fill="white"/>
<path d="M16.31 31.9137C15.8627 31.9162 15.4452 31.8369 15.0575 31.6759C14.6697 31.5088 14.3299 31.278 14.0381 30.9834C13.7463 30.6828 13.5177 30.3365 13.3523 29.9446C13.193 29.5525 13.112 29.1329 13.1095 28.6856C13.107 28.2323 13.1833 27.8118 13.3382 27.4241C13.4993 27.0303 13.721 26.6845 14.0034 26.3867C14.2919 26.0889 14.6261 25.8574 15.0059 25.6921C15.3919 25.5267 15.8085 25.4428 16.2558 25.4403C16.703 25.4378 17.1175 25.5171 17.4992 25.6782C17.887 25.8392 18.2268 26.067 18.5185 26.3615C18.8103 26.6561 19.0389 26.9994 19.2043 27.3913C19.3697 27.7833 19.4536 28.206 19.4562 28.6593C19.4587 29.1066 19.3794 29.5271 19.2184 29.9209C19.0574 30.3147 18.8327 30.6605 18.5442 30.9583C18.2617 31.256 17.9276 31.4906 17.5417 31.662C17.1618 31.8273 16.7512 31.9112 16.31 31.9137ZM16.2873 31.0978C16.7406 31.0953 17.136 30.9903 17.4733 30.7829C17.8167 30.5694 18.0871 30.2808 18.2845 29.917C18.4819 29.5472 18.5793 29.1266 18.5767 28.6551C18.5747 28.3046 18.5155 27.9845 18.399 27.695C18.2825 27.3995 18.1209 27.1435 17.9142 26.9271C17.7075 26.7106 17.4648 26.5457 17.1861 26.4324C16.9074 26.3131 16.5988 26.2544 16.2603 26.2563C15.813 26.2588 15.4177 26.3637 15.0743 26.5712C14.737 26.7786 14.4696 27.0641 14.2722 27.4279C14.0808 27.7917 13.9864 28.2093 13.989 28.6807C13.991 29.0313 14.0472 29.3574 14.1577 29.659C14.2742 29.9545 14.4327 30.2105 14.6334 30.427C14.8401 30.6374 15.0828 30.8023 15.3615 30.9216C15.6463 31.0409 15.9549 31.0997 16.2873 31.0978Z" fill="white"/>
<path d="M24.187 31.8697C23.7337 31.8723 23.3132 31.793 22.9254 31.632C22.5377 31.4649 22.1979 31.2341 21.9061 30.9395C21.6203 30.6449 21.3978 30.3016 21.2385 29.9096C21.0791 29.5176 20.9982 29.098 20.9957 28.6507C20.9932 28.1974 21.0694 27.7738 21.2244 27.3801C21.3793 26.9863 21.598 26.6436 21.8805 26.3519C22.169 26.0541 22.5032 25.8225 22.883 25.6572C23.2689 25.4858 23.6885 25.3988 24.1419 25.3963C24.6375 25.3935 25.0732 25.4757 25.4489 25.6429C25.8246 25.81 26.1583 26.0379 26.45 26.3264L25.864 26.919C25.6633 26.6965 25.4175 26.5225 25.1267 26.3972C24.8419 26.2719 24.5151 26.2102 24.1464 26.2123C23.814 26.2141 23.5091 26.2763 23.2317 26.3987C22.9543 26.5151 22.7135 26.6827 22.5092 26.9014C22.3049 27.1202 22.1461 27.3779 22.0329 27.6748C21.9258 27.9715 21.8732 28.2952 21.8752 28.6458C21.8771 28.9964 21.9333 29.3194 22.0438 29.615C22.1603 29.9105 22.3219 30.1665 22.5286 30.383C22.7353 30.5994 22.978 30.7673 23.2567 30.8867C23.5354 30.9999 23.841 31.0557 24.1734 31.0538C24.5663 31.0516 24.9075 30.9862 25.1969 30.8577C25.4863 30.7231 25.7301 30.5434 25.9283 30.3187L26.5208 30.8956C26.2324 31.1995 25.8922 31.4371 25.5003 31.6085C25.1144 31.7799 24.6766 31.867 24.187 31.8697Z" fill="white"/>
<path d="M32.0969 31.735L28.9053 28.4706L31.9983 25.4431L33.1044 25.437L29.7678 28.6834L29.7652 28.2119L33.2302 31.7286L32.0969 31.735ZM28.2073 31.7566L28.1722 25.4645L29.0245 25.4597L29.0596 31.7519L28.2073 31.7566Z" fill="white"/>
<path d="M37.1348 31.7975C36.6815 31.8 36.261 31.7208 35.8732 31.5597C35.4854 31.3927 35.1456 31.1618 34.8539 30.8673C34.5681 30.5727 34.3456 30.2294 34.1862 29.8374C34.0269 29.4454 33.946 29.0257 33.9435 28.5785C33.941 28.1251 34.0172 27.7016 34.1721 27.3078C34.3271 26.9141 34.5458 26.5713 34.8283 26.2796C35.1167 25.9818 35.4509 25.7503 35.8308 25.585C36.2167 25.4136 36.6363 25.3266 37.0896 25.3241C37.5853 25.3213 38.021 25.4035 38.3966 25.5706C38.7723 25.7378 39.1061 25.9656 39.3978 26.2541L38.8118 26.8467C38.6111 26.6242 38.3653 26.4503 38.0744 26.325C37.7897 26.1996 37.4629 26.138 37.0942 26.1401C36.7618 26.1419 36.4569 26.2041 36.1795 26.3265C35.9021 26.4429 35.6612 26.6105 35.4569 26.8292C35.2527 27.0479 35.0939 27.3057 34.9807 27.6025C34.8736 27.8993 34.821 28.223 34.8229 28.5736C34.8249 28.9241 34.8811 29.2472 34.9915 29.5428C35.108 29.8383 35.2697 30.0943 35.4764 30.3107C35.6831 30.5272 35.9258 30.6951 36.2045 30.8144C36.4832 30.9277 36.7888 30.9834 37.1212 30.9816C37.5141 30.9794 37.8552 30.914 38.1447 30.7855C38.4341 30.6509 38.6779 30.4712 38.8761 30.2464L39.4686 30.8234C39.1802 31.1272 38.84 31.3649 38.4481 31.5363C38.0622 31.7077 37.6244 31.7948 37.1348 31.7975Z" fill="white"/>
<path d="M41.1551 31.6844L41.12 25.3923L41.9723 25.3875L42.0074 31.6797L41.1551 31.6844ZM45.2169 31.6618L45.1818 25.3696L46.0341 25.3648L46.0692 31.657L45.2169 31.6618ZM41.7194 28.8162L41.715 28.0364L45.4051 28.0159L45.4095 28.7956L41.7194 28.8162Z" fill="white"/>
<path d="M47.7288 31.6477L50.2686 25.3412L50.8852 25.3378L53.4861 31.6156L52.5613 31.6208L50.4191 26.3105L50.7364 26.3088L48.6355 31.6427L47.7288 31.6477ZM48.9449 30.2175L48.9407 29.474L52.25 29.4556L52.2542 30.199L48.9449 30.2175Z" fill="white"/>
<path d="M55.068 31.6068L55.0329 25.3146L55.8851 25.3099L55.9202 31.6021L55.068 31.6068Z" fill="white"/>
<path d="M58.0401 31.5902L58.005 25.2981L58.6034 25.2947L58.8628 26.2816L58.8924 31.5855L58.0401 31.5902ZM62.392 31.5659L58.5009 26.4286L58.6034 25.2947L62.5035 30.4229L62.392 31.5659ZM62.392 31.5659L62.133 30.6335L62.1031 25.2752L62.9553 25.2704L62.9904 31.5626L62.392 31.5659Z" fill="white"/>
<path d="M69.3826 31.6176C68.8869 31.6204 68.4633 31.5321 68.1117 31.3527C67.7601 31.1733 67.4474 30.9121 67.1735 30.5691L67.7505 29.9856C67.9515 30.2626 68.1824 30.4728 68.4431 30.6164C68.7038 30.754 69.0245 30.8217 69.4053 30.8196C69.78 30.8175 70.0788 30.7343 70.3015 30.5698C70.5303 30.4053 70.6439 30.1811 70.6423 29.897C70.641 29.6612 70.5855 29.4711 70.4759 29.3267C70.3663 29.1822 70.2176 29.0652 70.0297 28.9756C69.8478 28.8799 69.6479 28.7964 69.4299 28.725C69.2118 28.6477 68.9938 28.5673 68.7757 28.4839C68.5576 28.3944 68.3575 28.2868 68.1755 28.1608C67.9934 28.0289 67.8444 27.8574 67.7284 27.6465C67.6184 27.4356 67.5625 27.1699 67.5607 26.8496C67.5587 26.493 67.6417 26.1903 67.8095 25.9415C67.9834 25.6867 68.218 25.4919 68.5135 25.3573C68.8149 25.2166 69.153 25.1452 69.5278 25.1431C69.9388 25.1408 70.3079 25.2204 70.6352 25.3817C70.9625 25.5371 71.2296 25.7441 71.4366 26.0029L70.8596 26.5864C70.671 26.3698 70.4676 26.2077 70.2494 26.1002C70.0372 25.9925 69.7921 25.9395 69.5141 25.9411C69.1756 25.943 68.9071 26.02 68.7084 26.1722C68.5098 26.3184 68.4112 26.5245 68.4127 26.7904C68.4139 27.002 68.4692 27.1739 68.5788 27.3063C68.6943 27.4326 68.843 27.5406 69.0248 27.6302C69.2067 27.7199 69.4066 27.8034 69.6246 27.8807C69.8487 27.952 70.0698 28.0324 70.2879 28.1218C70.506 28.2113 70.7061 28.325 70.8882 28.463C71.0703 28.601 71.2164 28.7816 71.3264 29.0046C71.4425 29.2216 71.5014 29.4963 71.5033 29.8287C71.5064 30.3848 71.3154 30.821 70.9303 31.1375C70.5513 31.4539 70.0353 31.614 69.3826 31.6176Z" fill="white"/>
<path d="M73.2959 31.5051L73.2608 25.213L74.1131 25.2082L74.1482 31.5004L73.2959 31.5051ZM73.8762 31.5019L73.8719 30.7222L77.4803 30.702L77.4847 31.4818L73.8762 31.5019ZM73.8603 28.655L73.8562 27.9115L77.1655 27.8931L77.1696 28.6365L73.8603 28.655ZM73.8455 25.9894L73.8411 25.2097L77.4042 25.1898L77.4086 25.9696L73.8455 25.9894Z" fill="white"/>
<path d="M82.0021 31.5472C81.5488 31.5497 81.1282 31.4705 80.7405 31.3095C80.3527 31.1424 80.0129 30.9116 79.7211 30.617C79.4354 30.3224 79.2129 29.9791 79.0535 29.5871C78.8942 29.1951 78.8132 28.7755 78.8107 28.3282C78.8082 27.8748 78.8844 27.4513 79.0394 27.0575C79.1944 26.6638 79.4131 26.321 79.6955 26.0293C79.984 25.7315 80.3182 25.5 80.6981 25.3347C81.084 25.1633 81.5036 25.0763 81.9569 25.0738C82.4525 25.071 82.8882 25.1532 83.2639 25.3204C83.6396 25.4875 83.9733 25.7153 84.2651 26.0038L83.679 26.5965C83.4783 26.3739 83.2325 26.2 82.9417 26.0747C82.6569 25.9493 82.3302 25.8877 81.9615 25.8898C81.629 25.8916 81.3241 25.9538 81.0468 26.0762C80.7694 26.1926 80.5285 26.3602 80.3242 26.5789C80.1199 26.7976 79.9612 27.0554 79.848 27.3522C79.7408 27.649 79.6882 27.9727 79.6902 28.3233C79.6922 28.6738 79.7484 28.9969 79.8588 29.2925C79.9753 29.588 80.1369 29.844 80.3436 30.0604C80.5504 30.2769 80.7931 30.4448 81.0718 30.5641C81.3505 30.6774 81.656 30.7331 81.9885 30.7313C82.3813 30.7291 82.7225 30.6637 83.0119 30.5352C83.3013 30.4006 83.5451 30.2209 83.7433 29.9962L84.3359 30.5731C84.0474 30.877 83.7073 31.1146 83.3153 31.286C82.9294 31.4574 82.4917 31.5445 82.0021 31.5472Z" fill="white"/>
<path d="M88.3802 31.5116C87.9148 31.5142 87.4971 31.4138 87.1273 31.2104C86.7634 31.0008 86.4747 30.7153 86.2612 30.3538C86.0475 29.9863 85.9394 29.5698 85.9368 29.1044L85.9147 25.1424L86.767 25.1376L86.789 29.0815C86.7909 29.414 86.862 29.7007 87.0023 29.9417C87.1427 30.1827 87.3311 30.369 87.5676 30.5007C87.8101 30.6323 88.0795 30.6973 88.3756 30.6957C88.6839 30.6939 88.9525 30.6259 89.1814 30.4917C89.4164 30.3574 89.5997 30.169 89.7314 29.9265C89.869 29.6839 89.937 29.3995 89.9351 29.0731L89.9131 25.1201L90.7744 25.1153L90.7966 29.0864C90.7992 29.5518 90.6957 29.9664 90.4862 30.3303C90.2766 30.6941 89.9911 30.9828 89.6296 31.1964C89.2681 31.4039 88.8516 31.509 88.3802 31.5116Z" fill="white"/>
<path d="M93.4019 28.6548L93.3979 27.9385L95.1024 27.929C95.4711 27.927 95.7547 27.8317 95.9531 27.6432C96.1515 27.4547 96.2499 27.2003 96.2481 26.8799C96.2464 26.5777 96.1452 26.3274 95.9447 26.1291C95.7501 25.9307 95.4685 25.8325 95.0998 25.8346L93.3862 25.8442L93.3821 25.1007L95.1229 25.091C95.5218 25.0888 95.8698 25.1654 96.1668 25.3209C96.4638 25.4704 96.6917 25.6776 96.8503 25.9427C97.015 26.2077 97.0983 26.5125 97.1002 26.8571C97.1022 27.2137 97.0223 27.5254 96.8606 27.7923C96.705 28.0591 96.4795 28.2689 96.1841 28.4217C95.8888 28.5684 95.5416 28.6428 95.1427 28.6451L93.4019 28.6548ZM92.846 31.3961L92.8109 25.1039L93.6632 25.0991L93.6983 31.3913L92.846 31.3961ZM96.4726 31.3758L94.1721 28.5689L94.9775 28.2833L97.5515 31.3698L96.4726 31.3758Z" fill="white"/>
<path d="M99.0676 31.3614L99.0325 25.0692L99.8847 25.0644L99.9198 31.3566L99.0676 31.3614Z" fill="white"/>
<path d="M103.708 31.3355L103.674 25.2246L104.526 25.2199L104.56 31.3307L103.708 31.3355ZM101.537 25.835L101.533 25.0552L106.656 25.0267L106.66 25.8064L101.537 25.835Z" fill="white"/>
<path d="M109.896 28.7441L107.4 25.0225L108.389 25.017L110.4 28.0613L109.956 28.0638L111.943 24.9972L112.913 24.9918L110.44 28.7411L109.896 28.7441ZM109.765 31.3017L109.748 28.1828L110.6 28.178L110.618 31.2969L109.765 31.3017Z" fill="white"/>
<mask id="mask0_160_9090" style="mask-type:luminance" maskUnits="userSpaceOnUse" x="-56" y="-90" width="314" height="223">
<path d="M-55.8809 -89.8357H257.992V132.095H-55.8809V-89.8357Z" fill="white"/>
</mask>
<g mask="url(#mask0_160_9090)">
<path d="M9.6939 14.0639C10.7016 14.0639 11.5811 13.8398 12.3335 13.3917C13.0854 12.9443 13.6738 12.3202 14.0976 11.5197C14.5212 10.7197 14.734 9.79172 14.734 8.7359C14.734 7.95223 14.6136 7.23604 14.3735 6.58771C14.1334 5.93975 13.7893 5.38015 13.3419 4.90779C12.8934 4.43617 12.3577 4.0764 11.734 3.82773C11.1099 3.57981 10.4295 3.45603 9.6939 3.45603C8.68543 3.45603 7.80147 3.67636 7.04204 4.11592C6.28149 4.55584 5.69392 5.17174 5.27786 5.96398C4.86179 6.75548 4.65376 7.6797 4.65376 8.7359C4.65376 9.53597 4.77418 10.2641 5.01353 10.9199C5.25362 11.576 5.59774 12.1401 6.04587 12.6117C6.49362 13.0841 7.02601 13.4439 7.64153 13.6918C8.25743 13.9401 8.94155 14.0639 9.6939 14.0639ZM9.74162 17.5199C8.46136 17.5199 7.27766 17.2955 6.18977 16.8477C5.10189 16.4003 4.14971 15.7758 3.33361 14.9758C2.51788 14.1761 1.88557 13.2444 1.43782 12.18C0.989689 11.1164 0.765625 9.96807 0.765625 8.7359C0.765625 7.4877 0.989689 6.33569 1.43782 5.27986C1.88557 4.22404 2.5093 3.29982 3.31012 2.50795C4.10944 1.71608 5.05379 1.10056 6.14168 0.660255C7.22994 0.219955 8.41327 -7.62939e-06 9.6939 -7.62939e-06C10.9574 -7.62939e-06 12.1295 0.219955 13.2096 0.660255C14.2896 1.10056 15.2377 1.71608 16.0538 2.50795C16.8696 3.29982 17.4974 4.22777 17.9373 5.29179C18.3776 6.35582 18.5976 7.51193 18.5976 8.75976C18.5976 9.9923 18.3731 11.1398 17.9258 12.2039C17.4776 13.2679 16.8532 14.1958 16.0538 14.9881C15.2534 15.7799 14.3172 16.4003 13.2454 16.8477C12.1735 17.2955 11.0055 17.5199 9.74162 17.5199Z" fill="white"/>
</g>
<mask id="mask1_160_9090" style="mask-type:luminance" maskUnits="userSpaceOnUse" x="-56" y="-90" width="314" height="223">
<path d="M-55.8809 -89.8358H257.992V132.095H-55.8809V-89.8358Z" fill="white"/>
</mask>
<g mask="url(#mask1_160_9090)">
<path d="M23.8785 11.0642V8.11219H27.5262C27.9903 8.11219 28.4105 8.02011 28.7863 7.83631C29.1625 7.65213 29.4622 7.37625 29.6867 7.0079C29.9103 6.63993 30.0222 6.2 30.0222 5.68812C30.0222 5.15984 29.9103 4.71245 29.6867 4.34411C29.4622 3.97613 29.1625 3.70025 28.7863 3.51607C28.4105 3.33227 27.9903 3.24019 27.5262 3.24019H23.8785V0.288204H28.0787C29.1502 0.288204 30.1225 0.504066 30.9945 0.936165C31.8665 1.36789 32.5544 1.98826 33.0584 2.79579C33.5625 3.60406 33.8141 4.56817 33.8141 5.68812C33.8141 6.79167 33.5625 7.74832 33.0584 8.55548C32.5544 9.36375 31.8665 9.98375 30.9945 10.4162C30.1225 10.8479 29.1502 11.0642 28.0787 11.0642H23.8785ZM20.9746 0.288204H24.7666V17.2317H20.9746V0.288204Z" fill="white"/>
</g>
<mask id="mask2_160_9090" style="mask-type:luminance" maskUnits="userSpaceOnUse" x="-56" y="-90" width="314" height="223">
<path d="M-55.8809 -89.8357H257.992V132.095H-55.8809V-89.8357Z" fill="white"/>
</mask>
<g mask="url(#mask2_160_9090)">
<path d="M39.4291 0.503984H43.2449V17.2317H39.4291V0.503984ZM34.125 0.288118H48.5248V3.59987H34.125V0.288118Z" fill="white"/>
</g>
<mask id="mask3_160_9090" style="mask-type:luminance" maskUnits="userSpaceOnUse" x="-56" y="-90" width="314" height="223">
<path d="M-55.8809 -89.8357H257.992V132.095H-55.8809V-89.8357Z" fill="white"/>
</mask>
<g mask="url(#mask3_160_9090)">
<path d="M50.6133 0.288118H54.4056V17.2317H50.6133V0.288118Z" fill="white"/>
</g>
<mask id="mask4_160_9090" style="mask-type:luminance" maskUnits="userSpaceOnUse" x="-56" y="-90" width="314" height="223">
<path d="M-55.8809 -89.8357H257.992V132.095H-55.8809V-89.8357Z" fill="white"/>
</mask>
<g mask="url(#mask4_160_9090)">
<path d="M57.6445 17.2318V0.288227H60.3807L67.0523 10.6802H65.6367L72.2848 0.288227H75.0202V17.2318H71.2524V6.64815L71.9004 6.84016L67.5802 13.5841H65.0841L60.7643 6.84016L61.4122 6.64815V17.2318H57.6445Z" fill="white"/>
</g>
<mask id="mask5_160_9090" style="mask-type:luminance" maskUnits="userSpaceOnUse" x="-56" y="-90" width="314" height="223">
<path d="M-55.8809 -89.8358H257.992V132.095H-55.8809V-89.8358Z" fill="white"/>
</mask>
<g mask="url(#mask5_160_9090)">
<path d="M85.0998 17.4957C83.692 17.4957 82.4561 17.1956 81.3925 16.5957C80.3277 15.9962 79.4963 15.1719 78.8961 14.1239C78.2962 13.0763 77.9961 11.8881 77.9961 10.5597V0.288198H81.788V10.7517C81.788 11.44 81.936 12.0324 82.2324 12.5282C82.5281 13.0241 82.924 13.4003 83.4202 13.6556C83.9157 13.9121 84.4761 14.0396 85.0998 14.0396C85.7082 14.0396 86.2559 13.9121 86.7439 13.6556C87.2319 13.4003 87.6115 13.0241 87.8844 12.5282C88.1558 12.0324 88.2922 11.4478 88.2922 10.776V0.288198H92.1081V10.584C92.1081 11.912 91.812 13.096 91.22 14.1355C90.628 15.176 89.804 15.9962 88.7478 16.5957C87.692 17.1956 86.4759 17.4957 85.0998 17.4957Z" fill="white"/>
</g>
<mask id="mask6_160_9090" style="mask-type:luminance" maskUnits="userSpaceOnUse" x="-56" y="-90" width="314" height="223">
<path d="M-55.8809 -89.8357H257.992V132.095H-55.8809V-89.8357Z" fill="white"/>
</mask>
<g mask="url(#mask6_160_9090)">
<path d="M95.084 17.2318V0.288227H97.8197L104.492 10.6802H103.076L109.724 0.288227H112.46V17.2318H108.692V6.64815L109.339 6.84016L105.019 13.5841H102.524L98.2037 6.84016L98.8517 6.64815V17.2318H95.084Z" fill="white"/>
<path d="M14.0143 11.468C13.9379 11.6119 13.8559 11.7502 13.769 11.8822L9.68143 5.63781L5.5875 11.8643C5.39475 11.5634 5.23183 11.2357 5.10134 10.8793C4.86609 10.2358 4.74828 9.52147 4.74828 8.73631C4.74828 7.70025 4.95184 6.79355 5.36045 6.01697C5.76869 5.23964 6.34544 4.63567 7.09145 4.20358C7.83672 3.77185 8.70427 3.55599 9.69299 3.55599C10.4151 3.55599 11.0825 3.67753 11.6947 3.92098C12.3068 4.16443 12.8329 4.51749 13.2724 4.98053C13.7116 5.44395 14.0498 5.99311 14.285 6.62914C14.5203 7.2648 14.6381 7.96719 14.6381 8.73631C14.6381 9.77238 14.4297 10.6832 14.0143 11.468ZM17.7813 5.35708C17.3496 4.31356 16.7337 3.40276 15.9332 2.6258C15.1324 1.84848 14.2026 1.24451 13.1431 0.812784C12.0831 0.381058 10.933 0.165195 9.69299 0.165195C8.43696 0.165195 7.27562 0.381058 6.20824 0.812784C5.14011 1.24451 4.2144 1.84848 3.42962 2.6258C2.64446 3.40276 2.03192 4.30946 1.59311 5.34552C1.15318 6.38159 0.933594 7.51198 0.933594 8.73631C0.933594 9.94537 1.15318 11.0717 1.59311 12.1152C2.03192 13.1594 2.65229 14.074 3.45348 14.8588C4.25355 15.6439 5.18746 16.2561 6.25522 16.6953C7.3226 17.1344 8.48393 17.3544 9.74033 17.3544C10.98 17.3544 12.1264 17.1344 13.1785 16.6953C14.2298 16.2561 15.1481 15.6476 15.9332 14.8703C16.718 14.0934 17.3302 13.1833 17.7697 12.139C18.2089 11.0951 18.4293 9.96886 18.4293 8.7598C18.4293 7.53546 18.2134 6.40135 17.7813 5.35708Z" fill="white"/>
</g>
</g>
<defs>
<clipPath id="clip0_160_9090">
<rect width="112.468" height="32" fill="white" transform="translate(0.765625)"/>
</clipPath>
</defs>
</svg>
