<svg width="3563" height="996" viewBox="0 0 3563 996" fill="none" xmlns="http://www.w3.org/2000/svg">
<path fill-rule="evenodd" clip-rule="evenodd" d="M498 942C743.214 942 942 743.214 942 498C942 252.786 743.214 54 498 54C252.786 54 54 252.786 54 498C54 743.214 252.786 942 498 942ZM498 996C773.038 996 996 773.038 996 498C996 222.962 773.038 0 498 0C222.962 0 0 222.962 0 498C0 773.038 222.962 996 498 996Z" fill="white"/>
<path d="M179.719 777.52C257.333 865.563 370.956 921.103 497.551 921.103C624.147 921.103 737.77 865.563 815.384 777.52L777.493 723.946C711.49 805.459 610.607 857.57 497.551 857.57C384.496 857.57 283.612 805.459 217.609 723.946L179.719 777.52Z" fill="white"/>
<path d="M497.551 137.533C696.384 137.533 857.57 298.719 857.57 497.551C857.57 583.329 827.572 662.1 777.493 723.946L815.384 777.52C881.184 702.879 921.103 604.877 921.103 497.551C921.103 263.63 731.472 74 497.551 74C263.63 74 74 263.63 74 497.551C74 604.877 113.919 702.879 179.719 777.52L217.609 723.946C167.531 662.1 137.533 583.329 137.533 497.551C137.533 298.719 298.719 137.533 497.551 137.533Z" fill="white"/>
<path d="M744.687 677.561H250.416L217.609 723.946C283.612 805.459 384.496 857.57 497.551 857.57C610.607 857.57 711.49 805.459 777.493 723.946L744.687 677.561Z" fill="white"/>
<path d="M722.22 645.794L662.309 561.084H332.794L272.883 645.794H722.22Z" fill="white"/>
<path d="M639.842 529.318L579.93 444.607H415.173L355.261 529.318H639.842Z" fill="white"/>
<path d="M557.463 412.841L497.551 328.131L437.64 412.841H557.463Z" fill="white"/>
<path d="M3276.5 532.012H3201.65V179.212H3276.5L3381.39 442.382L3486.75 179.212H3562.55V532.012H3487.7V458.115C3487.7 381.834 3487.7 365.147 3491.52 338.926L3416.67 532.012H3346.11L3271.73 338.926C3276.02 365.147 3276.5 394.706 3276.5 433.324V532.012Z" fill="white"/>
<path d="M2839.83 399.474V179.212H2917.07V394.23C2917.07 438.568 2941.38 462.883 2984.77 462.883C3028.63 462.883 3053.42 437.615 3053.42 394.23V179.212H3130.66V399.474C3130.66 483.383 3073.45 537.734 2984.77 537.734C2896.57 537.734 2839.83 483.86 2839.83 399.474Z" fill="white"/>
<path d="M2482.68 532.012H2407.83V179.212H2482.68L2587.57 442.382L2692.93 179.212H2768.73V532.012H2693.88V458.115C2693.88 381.834 2693.88 365.147 2697.7 338.926L2622.85 532.012H2552.29L2477.91 338.926C2482.2 365.147 2482.68 394.706 2482.68 433.324V532.012Z" fill="white"/>
<path d="M2334.21 179.212V532.012H2256.98V179.212H2334.21Z" fill="white"/>
<path d="M1933.23 250.726V179.212H2210.7V250.726H2110.58V532.012H2033.35V250.726H1933.23Z" fill="white"/>
<path d="M1791.49 414.73H1725.7V532.012H1648.46V179.212H1791.49C1863.48 179.212 1911.63 226.411 1911.63 296.971C1911.63 367.531 1863.48 414.73 1791.49 414.73ZM1774.33 247.865H1725.7V346.077H1774.33C1811.51 346.077 1830.11 329.867 1830.11 296.971C1830.11 264.075 1811.51 247.865 1774.33 247.865Z" fill="white"/>
<path d="M1594.65 355.135C1594.65 462.883 1523.61 537.733 1421.11 537.733C1319.08 537.733 1249 463.359 1249 355.612C1249 247.865 1319.56 173.014 1421.59 173.014C1524.09 173.014 1594.65 247.388 1594.65 355.135ZM1513.12 355.135C1513.12 287.913 1478.8 247.388 1422.06 247.388C1364.85 247.388 1330.53 287.913 1330.53 355.135C1330.53 422.835 1364.85 463.359 1422.06 463.359C1478.8 463.359 1513.12 421.881 1513.12 355.135Z" fill="white"/>
<path d="M3497.2 757.836L3446.29 670.482H3463.26L3500.34 735.212C3502.01 738.354 3503.27 740.868 3504.74 744.22C3506.62 740.449 3506.62 740.449 3509.35 735.212L3546 670.482H3562.55L3512.28 757.836V820.472H3497.2V757.836Z" fill="white"/>
<path d="M3330.51 684.308V670.482H3437.98V684.308H3391.68V820.472H3376.6V684.308H3330.51Z" fill="white"/>
<path d="M3309.75 670.482V820.472H3294.67V670.482H3309.75Z" fill="white"/>
<path d="M3175.76 820.472H3160.68V670.482H3216.61C3246.98 670.482 3265.42 687.241 3265.42 713.845C3265.42 735.422 3254.11 750.504 3234.83 755.742L3266.88 820.472H3250.13L3219.54 758.255H3175.76V820.472ZM3175.76 684.098V744.639H3217.03C3237.77 744.639 3249.92 733.327 3249.92 714.264C3249.92 694.782 3237.14 684.098 3216.61 684.098H3175.76Z" fill="white"/>
<path d="M3014.38 768.311V670.482H3029.46V767.682C3029.46 794.077 3043.92 808.322 3070.1 808.322C3095.66 808.322 3110.11 793.658 3110.11 767.682V670.482H3125.2V768.311C3125.2 802.247 3104.25 822.986 3070.1 822.986C3035.33 822.986 3014.38 802.456 3014.38 768.311Z" fill="white"/>
<path d="M2923.99 822.776C2882.09 822.776 2853.6 791.563 2853.6 745.477C2853.6 699.39 2882.51 667.968 2924.82 667.968C2957.09 667.968 2982.43 687.45 2988.51 717.196H2972.38C2966.09 695.62 2947.66 682.422 2924.2 682.422C2891.31 682.422 2869.31 707.56 2869.31 745.477C2869.31 783.183 2891.31 808.321 2924.2 808.321C2947.87 808.321 2966.72 795.543 2973.22 775.433H2989.35C2982.43 803.713 2956.25 822.776 2923.99 822.776Z" fill="white"/>
<path d="M2832.19 820.472H2742.32V670.482H2831.98V684.308H2757.41V738.354H2825.07V751.971H2757.41V806.646H2832.19V820.472Z" fill="white"/>
<path d="M2615.28 709.445C2615.28 684.307 2635.39 667.758 2665.55 667.758C2692.58 667.758 2710.38 682.841 2712.69 707.979H2697.39C2695.72 691.011 2684.2 681.375 2665.34 681.375C2644.19 681.375 2630.36 692.268 2630.36 709.236C2630.36 722.433 2638.11 730.813 2653.82 734.793L2679.59 741.077C2703.05 746.733 2715.2 760.14 2715.2 780.46C2715.2 806.436 2695.09 822.985 2664.09 822.985C2634.97 822.985 2615.28 807.693 2613.39 783.183H2628.89C2629.73 798.895 2643.56 809.159 2664.09 809.159C2686.08 809.159 2700.12 798.476 2700.12 781.298C2700.12 767.891 2692.58 759.093 2676.45 755.322L2651.1 749.038C2627.64 743.382 2615.28 729.975 2615.28 709.445Z" fill="white"/>
<path d="M2431.93 820.472H2416.85V670.482H2432.14L2514.68 795.334V670.482H2529.55V820.472H2514.68L2431.93 695.62V820.472Z" fill="white"/>
<path d="M2380.38 670.482V820.472H2365.29V670.482H2380.38Z" fill="white"/>
<path d="M2230.28 820.472H2214.99L2270.08 670.482H2288.72L2344.45 820.472H2328.73L2314.07 780.67H2244.94L2230.28 820.472ZM2277.41 691.64L2249.55 767.473H2309.25L2281.18 691.64C2280.55 689.545 2279.51 687.031 2279.3 685.565C2279.09 686.822 2278.25 689.545 2277.41 691.64Z" fill="white"/>
<path d="M2097.66 820.472H2082.58V670.482H2097.66V737.307H2178.73V670.482H2193.6V820.472H2178.73V751.342H2097.66V820.472Z" fill="white"/>
<path d="M1991.13 822.776C1949.23 822.776 1920.75 791.563 1920.75 745.477C1920.75 699.39 1949.65 667.968 1991.97 667.968C2024.23 667.968 2049.58 687.45 2055.65 717.196H2039.52C2033.24 695.62 2014.8 682.422 1991.34 682.422C1958.45 682.422 1936.46 707.56 1936.46 745.477C1936.46 783.183 1958.45 808.321 1991.34 808.321C2015.01 808.321 2033.87 795.543 2040.36 775.433H2056.49C2049.58 803.713 2023.39 822.776 1991.13 822.776Z" fill="white"/>
<path d="M1827.21 670.482V760.769L1899.48 670.482H1917.5L1866.59 733.955L1918.34 820.472H1900.74L1856.75 746.524L1827.21 783.184V820.472H1812.13V670.482H1827.21Z" fill="white"/>
<path d="M1720.69 822.776C1678.79 822.776 1650.3 791.563 1650.3 745.477C1650.3 699.39 1679.21 667.968 1721.53 667.968C1753.79 667.968 1779.13 687.45 1785.21 717.196H1769.08C1762.79 695.62 1744.36 682.422 1720.9 682.422C1688.01 682.422 1666.01 707.56 1666.01 745.477C1666.01 783.183 1688.01 808.321 1720.9 808.321C1744.57 808.321 1763.42 795.543 1769.92 775.433H1786.05C1779.13 803.713 1752.95 822.776 1720.69 822.776Z" fill="white"/>
<path d="M1632.17 745.477C1632.17 790.934 1602.63 822.985 1560.74 822.985C1518.63 822.985 1489.3 790.934 1489.3 745.477C1489.3 700.019 1518.84 667.758 1560.74 667.758C1602.84 667.758 1632.17 699.809 1632.17 745.477ZM1616.67 745.477C1616.67 707.979 1593.83 682.422 1560.74 682.422C1527.64 682.422 1505.01 707.979 1505.01 745.477C1505.01 782.974 1527.64 808.531 1560.74 808.531C1593.83 808.531 1616.67 782.765 1616.67 745.477Z" fill="white"/>
<path d="M1414.38 670.482V806.646H1483.3V820.472H1399.3V670.482H1414.38Z" fill="white"/>
<path d="M1267.55 820.472V670.482H1322.44C1351.35 670.482 1369.15 685.146 1369.15 709.236C1369.15 726.833 1361.4 738.773 1345.9 744.848C1363.29 750.504 1372.09 762.654 1372.09 781.089C1372.09 805.18 1354.07 820.472 1325.58 820.472H1267.55ZM1322.23 683.889H1282.64V738.773H1324.12C1342.97 738.773 1353.65 728.299 1353.65 710.493C1353.65 693.735 1342.34 683.889 1322.23 683.889ZM1325.58 751.971H1282.64V806.855H1325.58C1345.27 806.855 1356.79 796.591 1356.79 779.204C1356.79 762.236 1345.06 751.971 1325.58 751.971Z" fill="white"/>
</svg>
