<svg width="17" height="12" viewBox="0 0 17 12" fill="none" xmlns="http://www.w3.org/2000/svg">
<path d="M7.33684 8.57143C7.33684 10.5222 5.96491 12 3.87719 12C1.78947 12 0 10.3448 0 7.38916C0 3.72414 2.80351 0.591132 6.44211 0V2.18719C4.35439 2.60098 2.80351 4.07882 2.80351 5.7931C3.1614 5.55665 3.6386 5.37931 4.41403 5.37931C5.96491 5.37931 7.33684 6.50246 7.33684 8.57143ZM17 8.57143C17 10.5222 15.5684 12 13.4807 12C11.4526 12 9.60351 10.3448 9.60351 7.38916C9.60351 3.72414 12.407 0.591132 16.1053 0V2.18719C14.0175 2.60098 12.4667 4.07882 12.4667 5.73399C12.8246 5.49754 13.3614 5.37931 14.0772 5.37931C15.6281 5.37931 17 6.50246 17 8.57143Z" fill="#286EF1"/>
</svg>